<svg width="127" height="106" viewBox="0 0 127 106" fill="none" xmlns="http://www.w3.org/2000/svg">
<path d="M126.998 53.2473C126.998 82.402 103.19 105.997 73.7725 105.997C44.3545 105.997 20.5469 82.402 20.5469 53.2473C20.5469 24.0927 44.3545 0.498047 73.7725 0.498047C103.19 0.498047 126.998 24.0927 126.998 53.2473Z" fill="#F0F1F2"/>
<mask id="mask0_896_17457" style="mask-type:luminance" maskUnits="userSpaceOnUse" x="20" y="53" width="107" height="53">
<path d="M20.4081 53.1755C20.4081 82.3397 44.2417 105.999 73.646 105.999C103.05 105.999 126.859 82.3511 126.859 53.1755V53L20.4081 53V53.1755Z" fill="white"/>
</mask>
<g mask="url(#mask0_896_17457)">
<g filter="url(#filter0_dd_896_17457)">
<path d="M113.821 -0.0820312H60.9332C59.8942 -0.0820312 58.8978 0.340976 58.1631 1.09393C57.4284 1.84689 57.0156 2.86812 57.0156 3.93296V106.315C57.0156 107.38 57.4284 108.401 58.1631 109.154C58.8978 109.907 59.8942 110.33 60.9332 110.33H113.821C114.86 110.33 115.856 109.907 116.591 109.154C117.326 108.401 117.738 107.38 117.738 106.315V3.93296C117.738 2.86812 117.326 1.84689 116.591 1.09393C115.856 0.340976 114.86 -0.0820312 113.821 -0.0820312Z" fill="white"/>
</g>
<path d="M111.858 99.2871H62.8885C61.8067 99.2871 60.9297 100.186 60.9297 101.295V105.31C60.9297 106.418 61.8067 107.317 62.8885 107.317H111.858C112.94 107.317 113.817 106.418 113.817 105.31V101.295C113.817 100.186 112.94 99.2871 111.858 99.2871Z" fill="#EDEEEF"/>
<path fill-rule="evenodd" clip-rule="evenodd" d="M102.064 30.9473C102.584 30.9473 103.082 31.1588 103.45 31.5352C103.817 31.9117 104.023 32.4223 104.023 32.9548V87.1572C104.023 87.6896 103.817 88.2002 103.45 88.5767C103.082 88.9531 102.584 89.1646 102.064 89.1646H70.5004C70.2825 89.1643 70.0707 89.2389 69.899 89.3764L65.4486 92.9237C65.3039 93.0391 65.1304 93.1105 64.948 93.1298C64.7655 93.1492 64.5814 93.1156 64.4167 93.033C64.252 92.9503 64.1132 92.8219 64.0162 92.6624C63.9191 92.5029 63.8678 92.3187 63.8679 92.1307V90.1684C63.8679 89.9022 63.7647 89.6469 63.581 89.4586C63.3974 89.2704 63.1482 89.1646 62.8885 89.1646C62.369 89.1646 61.8708 88.9531 61.5034 88.5767C61.1361 88.2002 60.9297 87.6896 60.9297 87.1572V32.9548C60.9297 32.4223 61.1361 31.9117 61.5034 31.5352C61.8708 31.1588 62.369 30.9473 62.8885 30.9473H102.064Z" fill="#E8E9EB"/>
<path d="M98.6409 79.2129H66.3207C65.5093 79.2129 64.8516 79.6623 64.8516 80.2166V84.2316C64.8516 84.786 65.5093 85.2354 66.3207 85.2354H98.6409C99.4522 85.2354 100.11 84.786 100.11 84.2316V80.2166C100.11 79.6623 99.4522 79.2129 98.6409 79.2129Z" fill="#399C97"/>
<path d="M82.131 69.1758H66.1807C65.4467 69.1758 64.8516 69.8499 64.8516 70.6814C64.8516 71.5129 65.4467 72.187 66.1807 72.187H82.131C82.8651 72.187 83.4602 71.5129 83.4602 70.6814C83.4602 69.8499 82.8651 69.1758 82.131 69.1758Z" fill="#9FA5AB"/>
<path d="M79.6514 74.1973H65.7221C65.2413 74.1973 64.8516 74.6467 64.8516 75.201C64.8516 75.7554 65.2413 76.2048 65.7221 76.2048H79.6514C80.1322 76.2048 80.522 75.7554 80.522 75.201C80.522 74.6467 80.1322 74.1973 79.6514 74.1973Z" fill="#D2D5D9"/>
<path d="M64.8516 35.3779C64.8516 35.196 65.0801 35.0488 65.3625 35.0488H99.599C99.8814 35.0488 100.11 35.196 100.11 35.3779V65.8359C100.11 66.0178 99.8814 66.165 99.599 66.165H65.3625C65.2954 66.165 65.2289 66.1565 65.1669 66.14C65.1049 66.1235 65.0486 66.0992 65.0011 66.0687C64.9537 66.0381 64.916 66.0018 64.8904 65.9619C64.8647 65.9219 64.8515 65.8791 64.8516 65.8359V35.3779Z" fill="white"/>
<path d="M85.1753 65.5921H78.1724C73.1317 61.9271 73.0978 59.0649 74.3495 55.2603V55.2254C75.6351 51.3509 78.1724 46.569 78.1724 39.0645H85.1753C85.1753 39.7276 85.2091 40.3559 85.2429 40.9493C86.021 54.4575 94.8846 58.5762 85.1753 65.5921Z" fill="#E9AF58"/>
<path d="M85.1753 65.5921H78.1724C73.1317 61.9271 73.0978 59.0649 74.3495 55.2603V55.2254C76.0411 50.5132 80.3037 44.9634 85.1753 39.0645C85.1753 39.7276 85.2091 40.3559 85.2429 40.9493C86.021 54.4575 94.8846 58.5762 85.1753 65.5921Z" fill="#E0A143"/>
<path d="M85.3088 65.5227H78.5625C85.9932 61.8511 85.6999 52.6042 85.3739 41.5215C86.1235 54.6779 94.6623 58.6895 85.3088 65.5227Z" fill="#D9942D"/>
</g>
<path d="M113.627 0H60.8981C59.8622 0 58.8687 0.302658 58.1362 0.841392C57.4037 1.38013 56.9922 2.1108 56.9922 2.87269V76.1262C56.9922 76.8881 57.4037 77.6188 58.1362 78.1576C58.8687 78.6963 59.8622 78.9989 60.8981 78.9989H113.627C114.663 78.9989 115.657 78.6963 116.389 78.1576C117.122 77.6188 117.533 76.8881 117.533 76.1262V2.87269C117.533 2.1108 117.122 1.38013 116.389 0.841392C115.657 0.302658 114.663 0 113.627 0Z" fill="white"/>
<path d="M104.023 14.9743C104.023 14.4419 103.817 13.9313 103.45 13.5548C103.082 13.1783 102.584 12.9668 102.064 12.9668H62.8885C62.369 12.9668 61.8708 13.1783 61.5034 13.5548C61.1361 13.9313 60.9297 14.4419 60.9297 14.9743V26.0155C60.9297 26.5479 61.1361 27.0586 61.5034 27.435C61.8708 27.8115 62.369 28.023 62.8885 28.023H102.064C102.584 28.023 103.082 27.8115 103.45 27.435C103.817 27.0586 104.023 26.5479 104.023 26.0155V14.9743Z" fill="#E8E9EB"/>
<path fill-rule="evenodd" clip-rule="evenodd" d="M102.064 30.9512C102.584 30.9512 103.082 31.1627 103.45 31.5392C103.817 31.9156 104.023 32.4262 104.023 32.9587V87.1611C104.023 87.6935 103.817 88.2041 103.45 88.5806C103.082 88.9571 102.584 89.1686 102.064 89.1686H70.5004C70.2825 89.1683 70.0707 89.2428 69.899 89.3803L65.4486 92.9276C65.3039 93.043 65.1304 93.1144 64.948 93.1338C64.7655 93.1531 64.5814 93.1195 64.4167 93.0369C64.252 92.9542 64.1132 92.8259 64.0162 92.6663C63.9191 92.5068 63.8678 92.3226 63.8679 92.1346V90.1723C63.8679 89.9061 63.7647 89.6508 63.581 89.4625C63.3974 89.2743 63.1482 89.1686 62.8885 89.1686C62.369 89.1686 61.8708 88.9571 61.5034 88.5806C61.1361 88.2041 60.9297 87.6935 60.9297 87.1611V32.9587C60.9297 32.4262 61.1361 31.9156 61.5034 31.5392C61.8708 31.1627 62.369 30.9512 62.8885 30.9512H102.064Z" fill="#E8E9EB"/>
<path d="M98.6487 79.2148H66.3285C65.5171 79.2148 64.8594 79.6642 64.8594 80.2186V84.2336C64.8594 84.7879 65.5171 85.2373 66.3285 85.2373H98.6487C99.46 85.2373 100.118 84.7879 100.118 84.2336V80.2186C100.118 79.6642 99.46 79.2148 98.6487 79.2148Z" fill="#399C97"/>
<path d="M82.1388 69.1777H66.1886C65.4545 69.1777 64.8594 69.8518 64.8594 70.6834C64.8594 71.5149 65.4545 72.189 66.1886 72.189H82.1388C82.8729 72.189 83.468 71.5149 83.468 70.6834C83.468 69.8518 82.8729 69.1777 82.1388 69.1777Z" fill="#9FA5AB"/>
<path d="M79.6592 74.1973H65.73C65.2491 74.1973 64.8594 74.6467 64.8594 75.201C64.8594 75.7554 65.2491 76.2048 65.73 76.2048H79.6592C80.14 76.2048 80.5298 75.7554 80.5298 75.201C80.5298 74.6467 80.14 74.1973 79.6592 74.1973Z" fill="#D2D5D9"/>
<path d="M64.8516 35.374C64.8516 35.1921 65.0801 35.0449 65.3625 35.0449H99.599C99.8814 35.0449 100.11 35.1921 100.11 35.374V65.832C100.11 66.0139 99.8814 66.1611 99.599 66.1611H65.3625C65.2954 66.1611 65.2289 66.1526 65.1669 66.1361C65.1049 66.1196 65.0486 66.0953 65.0011 66.0648C64.9537 66.0342 64.916 65.9979 64.8904 65.958C64.8647 65.918 64.8515 65.8752 64.8516 65.832V35.374Z" fill="white"/>
<path d="M85.1753 65.5882H78.1724C73.1317 61.9232 73.0978 59.061 74.3495 55.2564V55.2215C75.6351 51.347 78.1724 46.5651 78.1724 39.0605H85.1753C85.1753 39.7237 85.2091 40.352 85.2429 40.9454C86.021 54.4536 94.8846 58.5723 85.1753 65.5882Z" fill="#E9AF58"/>
<path d="M85.1753 65.5882H78.1724C73.1317 61.9232 73.0978 59.061 74.3495 55.2564V55.2215C76.0411 50.5093 80.3037 44.9595 85.1753 39.0605C85.1753 39.7237 85.2091 40.352 85.2429 40.9454C86.021 54.4536 94.8846 58.5723 85.1753 65.5882Z" fill="#E0A143"/>
<path fill-rule="evenodd" clip-rule="evenodd" d="M87.4784 44.6148C87.396 44.5305 87.3307 44.4304 87.2861 44.3202C87.2416 44.21 87.2187 44.0918 87.2188 43.9725V40.2655C87.2188 40.0246 87.3121 39.7937 87.4782 39.6234C87.6444 39.4531 87.8697 39.3574 88.1047 39.3574H91.7223C91.9571 39.3574 92.1826 39.4534 92.3486 39.6232L96.8201 44.2065C97.1658 44.5609 97.1658 45.1356 96.8201 45.4903L93.2025 49.1974C93.0363 49.3676 92.8111 49.4632 92.5762 49.4632C92.3413 49.4632 92.116 49.3676 91.9499 49.1974L87.4784 44.6144V44.6148ZM89.9897 42.1971C90.0504 42.1349 90.0985 42.0611 90.1314 41.9798C90.1643 41.8986 90.1812 41.8115 90.1812 41.7236C90.1813 41.6356 90.1644 41.5485 90.1316 41.4672C90.0988 41.386 90.0507 41.3121 89.99 41.2499C89.9294 41.1877 89.8574 41.1383 89.7781 41.1046C89.6988 41.0709 89.6138 41.0536 89.528 41.0535C89.4422 41.0535 89.3572 41.0708 89.278 41.1044C89.1987 41.1381 89.1266 41.1874 89.0659 41.2495C88.9433 41.3751 88.8744 41.5454 88.8743 41.723C88.8743 41.9007 88.943 42.071 89.0655 42.1967C89.188 42.3223 89.3542 42.393 89.5275 42.393C89.7008 42.3931 89.8671 42.3226 89.9897 42.1971Z" fill="#108060"/>
<path d="M85.3088 65.5188H78.5625C85.9932 61.8472 85.6999 52.6003 85.3739 41.5176C86.1235 54.674 94.6623 58.6856 85.3088 65.5188Z" fill="#D9942D"/>
<path d="M58.9688 1.92578H115.774V18.9895H58.9688V1.92578Z" fill="white"/>
<path d="M97.1817 7.95117H79.5525C78.4707 7.95117 77.5938 8.84996 77.5938 9.95867C77.5938 11.0674 78.4707 11.9662 79.5525 11.9662H97.1817C98.2636 11.9662 99.1405 11.0674 99.1405 9.95867C99.1405 8.84996 98.2636 7.95117 97.1817 7.95117Z" fill="#B6BABF"/>
<path d="M61.9219 9.96807C61.9219 11.8381 62.7632 13.5274 64.0726 14.6335C64.1706 14.7339 64.2881 14.8142 64.4056 14.8945C64.4056 14.8945 64.484 14.9547 64.5232 14.9748C64.6005 15.0149 64.6789 15.0751 64.7572 15.1153C65.6377 15.6794 66.6935 15.9805 67.7885 15.9805C68.0823 15.9805 68.3555 15.9604 68.6298 15.9203H68.7071C68.9226 15.8801 69.1185 15.84 69.3134 15.7998C69.8369 15.6609 70.3378 15.4441 70.8001 15.1564C71.678 14.6223 72.4048 13.8629 72.9089 12.953C73.413 12.0432 73.6769 11.0144 73.6747 9.96807C73.6747 6.63061 71.0538 3.93555 67.8081 3.93555C66.2469 3.93555 64.7498 4.57111 63.6459 5.70243C62.542 6.83375 61.9219 8.36815 61.9219 9.96807Z" fill="#DE6A5A"/>
<path d="M71.2905 10.7612L70.9389 10.9821C70.8997 11.0021 70.8801 11.0624 70.8801 11.1226L70.9389 11.3033C70.9389 11.3233 70.9585 11.3233 70.9585 11.3434C70.9977 11.4639 70.8214 11.5442 70.8214 11.5442C70.8605 11.5241 70.8997 11.6044 70.8997 11.6445C70.8997 11.6847 70.8997 11.7248 70.8801 11.765C70.8801 11.7851 70.8605 11.8051 70.8605 11.8252C70.8214 11.8854 70.7626 11.9657 70.7626 12.046C70.7626 12.1063 70.8018 12.1866 70.8214 12.2468C70.841 12.307 70.8409 12.3672 70.8409 12.4275C70.8409 12.5479 70.7626 12.7286 70.6059 12.829C70.1759 13.1502 68.6314 13.0297 68.6118 13.0498L68.5922 13.8327L68.5727 14.5956L65.4239 14.716C65.561 14.6156 65.8156 13.4111 65.8156 13.11C65.8156 12.0059 65.5218 11.3434 65.0527 10.6006C64.6619 9.97832 64.4269 9.35599 64.4464 8.61322C64.564 5.46145 67.5952 5.0198 68.6706 5.70235C68.6706 5.70235 69.6284 6.10385 70.2543 6.90685C70.7038 7.48902 70.7038 8.39239 70.6647 8.87419C70.6451 9.09502 70.5677 9.29577 70.6647 9.49652L71.3297 10.6207C71.3688 10.6609 71.3492 10.7211 71.2905 10.7612Z" fill="#E9B99E"/>
<path d="M70.5742 6.70647C70.6917 6.94737 69.5772 8.85449 68.1502 9.03517C67.7584 9.07532 68.1894 9.81809 67.6027 9.85824C67.1718 9.89839 67.0542 9.07532 66.3902 9.25599C66.0964 9.33629 65.9984 9.81809 66.0964 10.0991C66.351 10.7215 66.8006 10.6612 66.8006 10.862C66.8006 11.5245 66.2139 11.926 65.7056 12.1066C65.7056 12.1066 65.5489 11.5445 65.1973 11.1029C65.1973 11.1029 63.7693 9.85824 64.4344 7.52955C64.7076 6.54587 65.4118 5.76295 66.3902 5.44175C67.5048 5.06032 68.776 5.3213 69.7143 6.00385C69.8906 6.1243 70.4772 6.48565 70.5742 6.70647Z" fill="#50372E"/>
<path d="M65.6403 10.6803C65.6403 10.8008 65.9537 11.8848 64.6628 12.1056C63.372 12.3265 62.7462 9.69664 63.4699 9.19477C64.1937 8.69289 64.8773 9.07431 64.8773 9.07431L65.6403 10.6803Z" fill="#50372E"/>
<path d="M64.7578 15.1144C65.6383 15.6765 66.6941 15.9776 67.7891 15.9776C68.0829 15.9776 68.3561 15.9575 68.6304 15.9174H68.7087C68.9232 15.8772 69.1191 15.8371 69.315 15.7969C69.838 15.658 70.3386 15.4416 70.8007 15.1545C70.1161 14.9136 68.5912 14.4921 68.5912 14.4921V13.8095C68.5324 13.8296 66.8116 14.1106 65.8146 13.127C65.8146 13.1671 65.8146 13.2273 65.795 13.2876C65.795 13.3277 65.795 13.3879 65.7754 13.4482C65.7754 13.4883 65.7558 13.5285 65.7558 13.5686C65.7558 13.5887 65.7558 13.6088 65.7362 13.6288C65.6775 13.95 65.5404 14.3315 65.2661 14.6326C65.2857 14.5924 65.032 14.8333 64.7578 15.1144Z" fill="#975D48"/>
<g filter="url(#filter1_d_896_17457)">
<path d="M5.59361 40.9167C5.43634 40.2923 5.53487 39.6318 5.86754 39.0804C6.2002 38.529 6.73977 38.1318 7.36761 37.9761L55.4937 26.0573C56.1217 25.9019 56.7863 26.0009 57.3416 26.3324C57.8969 26.6639 58.2974 27.2008 58.4549 27.8251L65.6647 56.4178C65.8219 57.0422 65.7234 57.7027 65.3907 58.2541C65.0581 58.8055 64.5185 59.2027 63.8907 59.3583L15.7645 71.2772C15.1366 71.4326 14.4719 71.3336 13.9167 71.0021C13.3614 70.6706 12.9609 70.1337 12.8033 69.5094L5.59361 40.9167Z" fill="#D9942D"/>
<path d="M36.8904 54.5405L58.2684 27.0929L65.6625 56.4168C65.7406 56.7258 65.7562 57.0472 65.7084 57.3624C65.6605 57.6777 65.5502 57.9807 65.3836 58.2542C65.217 58.5276 64.9976 58.766 64.7377 58.9559C64.4778 59.1458 64.1827 59.2833 63.8692 59.3606L54.0561 61.7909L36.8904 54.5405Z" fill="#E0A143"/>
<path d="M37.0624 54.3529L58.2634 27.0663C58.214 26.8573 58.1231 26.6602 57.9959 26.4864C57.8688 26.3127 57.7079 26.1656 57.5227 26.054C57.3375 25.9423 57.1317 25.8681 56.9173 25.8355C56.7029 25.8029 56.484 25.8127 56.2733 25.8642L6.59569 38.1673C6.38457 38.2194 6.18601 38.3125 6.01163 38.4413C5.83725 38.5701 5.69056 38.7319 5.58014 38.9174C5.46874 39.1022 5.39564 39.3071 5.36512 39.5201C5.3346 39.733 5.34726 39.9498 5.40237 40.1578L37.0624 54.3529Z" fill="#E9AF58"/>
</g>
<defs>
<filter id="filter0_dd_896_17457" x="45.0856" y="-10.456" width="84.5827" height="134.272" filterUnits="userSpaceOnUse" color-interpolation-filters="sRGB">
<feFlood flood-opacity="0" result="BackgroundImageFix"/>
<feColorMatrix in="SourceAlpha" type="matrix" values="0 0 0 0 0 0 0 0 0 0 0 0 0 0 0 0 0 0 127 0" result="hardAlpha"/>
<feOffset dy="1.556"/>
<feGaussianBlur stdDeviation="5.965"/>
<feColorMatrix type="matrix" values="0 0 0 0 0 0 0 0 0 0 0 0 0 0 0 0 0 0 0.09 0"/>
<feBlend mode="normal" in2="BackgroundImageFix" result="effect1_dropShadow_896_17457"/>
<feColorMatrix in="SourceAlpha" type="matrix" values="0 0 0 0 0 0 0 0 0 0 0 0 0 0 0 0 0 0 127 0" result="hardAlpha"/>
<feOffset dy="1.037"/>
<feGaussianBlur stdDeviation="0.778"/>
<feColorMatrix type="matrix" values="0 0 0 0 0 0 0 0 0 0 0 0 0 0 0 0 0 0 0.12 0"/>
<feBlend mode="normal" in2="effect1_dropShadow_896_17457" result="effect2_dropShadow_896_17457"/>
<feBlend mode="normal" in="SourceGraphic" in2="effect2_dropShadow_896_17457" result="shape"/>
</filter>
<filter id="filter1_d_896_17457" x="0.348877" y="21.8164" width="70.3889" height="55.5332" filterUnits="userSpaceOnUse" color-interpolation-filters="sRGB">
<feFlood flood-opacity="0" result="BackgroundImageFix"/>
<feColorMatrix in="SourceAlpha" type="matrix" values="0 0 0 0 0 0 0 0 0 0 0 0 0 0 0 0 0 0 127 0" result="hardAlpha"/>
<feOffset dy="1"/>
<feGaussianBlur stdDeviation="2.5"/>
<feColorMatrix type="matrix" values="0 0 0 0 0 0 0 0 0 0 0 0 0 0 0 0 0 0 0.3 0"/>
<feBlend mode="normal" in2="BackgroundImageFix" result="effect1_dropShadow_896_17457"/>
<feBlend mode="normal" in="SourceGraphic" in2="effect1_dropShadow_896_17457" result="shape"/>
</filter>
</defs>
</svg>
