<svg width="127" height="122" viewBox="0 0 127 122" fill="none" xmlns="http://www.w3.org/2000/svg">
<path d="M122.589 65.668C122.589 76.8094 119.27 87.7006 113.051 96.9643C106.832 106.228 97.9932 113.448 87.6518 117.712C77.3104 121.976 65.9309 123.091 54.9525 120.918C43.9741 118.744 33.8898 113.379 25.9748 105.501C18.0598 97.6225 12.6697 87.5851 10.4859 76.6578C8.30218 65.7304 9.42296 54.404 13.7065 44.1106C17.9901 33.8173 25.244 25.0194 34.5511 18.8296C43.8581 12.6398 54.8003 9.33594 65.9937 9.33594C77.1889 9.33038 88.134 12.6313 97.4433 18.8208C106.753 25.0102 114.007 33.8099 118.289 44.1057C121.132 50.9421 122.593 58.2692 122.589 65.668Z" fill="#F0F1F2"/>
<g filter="url(#filter0_d_896_17528)">
<path d="M86.1835 8H14.1958C13.7935 8 13.3952 8.07888 13.0235 8.23215C12.6518 8.38541 12.3141 8.61005 12.0297 8.89324C11.7452 9.17642 11.5196 9.51261 11.3658 9.88259C11.2119 10.2526 11.1327 10.6491 11.1328 11.0495V94.8975C11.1328 95.7061 11.4555 96.4817 12.0299 97.0535C12.6043 97.6254 13.3834 97.9468 14.1958 97.947H86.1835C86.9959 97.9468 87.775 97.6254 88.3494 97.0535C88.9238 96.4817 89.2465 95.7061 89.2465 94.8975V11.0495C89.2466 10.6491 89.1675 10.2526 89.0136 9.88259C88.8597 9.51261 88.6341 9.17642 88.3497 8.89324C88.0652 8.61005 87.7275 8.38541 87.3559 8.23215C86.9842 8.07888 86.5858 8 86.1835 8Z" fill="white"/>
</g>
<path fill-rule="evenodd" clip-rule="evenodd" d="M40.2344 17.1494C40.2344 16.7457 40.3955 16.3584 40.6824 16.0729C40.9692 15.7874 41.3583 15.627 41.764 15.627H58.7364C59.1421 15.627 59.5312 15.7874 59.818 16.0729C60.1049 16.3584 60.266 16.7457 60.266 17.1494C60.266 17.5532 60.1049 17.9405 59.818 18.226C59.5312 18.5115 59.1421 18.6719 58.7364 18.6719H41.764C41.3583 18.6719 40.9692 18.5115 40.6824 18.226C40.3955 17.9405 40.2344 17.5532 40.2344 17.1494Z" fill="#D2D5D9"/>
<path d="M80.0471 24.0137H19.5475C19.1414 24.0137 18.7518 24.1742 18.4646 24.46C18.1773 24.7458 18.0158 25.1334 18.0156 25.5377V46.8814C18.0156 47.7234 18.7009 48.4054 19.5468 48.4054H80.0471C80.4533 48.4054 80.8428 48.2449 81.1301 47.9591C81.4173 47.6733 81.5788 47.2857 81.579 46.8814V25.5377C81.5788 25.1334 81.4173 24.7458 81.1301 24.46C80.8428 24.1742 80.4533 24.0137 80.0471 24.0137Z" fill="#F0F1F2"/>
<path d="M54.0086 48.4016V38.14C53.9977 37.4957 54.122 36.8563 54.3737 36.2626C54.6254 35.6689 54.9988 35.1341 55.4701 34.6923L55.8762 34.282C56.7978 33.3674 57.3225 32.1296 57.3378 30.8344V27.0586H61.3988V30.7521C61.3885 31.3965 61.5132 32.0359 61.7651 32.6295C62.017 33.2232 62.3906 33.758 62.8619 34.1998L63.2673 34.6109C64.1889 35.5255 64.7139 36.7632 64.7296 38.0586V48.4016H54.0086Z" fill="#D2D5D9"/>
<path d="M64.7296 43.0645H54.0078V48.4008H64.7296V43.0645Z" fill="#9FA5AB"/>
<path d="M70.7685 48.4032H61.7821L60.1484 38.4941H72.4013L70.7685 48.4032Z" fill="#E8E9EB"/>
<path d="M60.9062 43.0645L61.8737 48.4008H70.7416L71.628 43.0645H60.9062Z" fill="#D2D5D9"/>
<path d="M21.0794 56.0254H42.5237C43.3356 56.0272 44.1138 56.3491 44.6878 56.9206C45.2619 57.4922 45.5851 58.2668 45.5867 59.0749V86.5162C45.5847 87.3242 45.2613 88.0985 44.6873 88.6698C44.1133 89.2412 43.3354 89.563 42.5237 89.565H21.0787C20.2669 89.563 19.489 89.2412 18.915 88.6698C18.341 88.0985 18.0176 87.3242 18.0156 86.5162V59.0749C18.0176 58.2669 18.341 57.4925 18.9149 56.9211C19.4889 56.3496 20.2676 56.0276 21.0794 56.0254Z" fill="#F0F1F2"/>
<path d="M74.6934 60.5994H54.7818C54.1726 60.599 53.5885 60.358 53.1577 59.9292C52.727 59.5004 52.4848 58.919 52.4844 58.3127C52.4843 58.0123 52.5436 57.7149 52.6591 57.4374C52.7745 57.1599 52.9437 56.9078 53.1571 56.6954C53.3704 56.4831 53.6237 56.3146 53.9025 56.1997C54.1813 56.0849 54.4801 56.0258 54.7818 56.0259H74.6934C75.1504 56.0165 75.5995 56.1459 75.9807 56.397C76.3619 56.648 76.6572 57.0088 76.8272 57.4311C76.9404 57.7105 76.9962 58.0104 76.9909 58.3127C76.9897 58.9188 76.7472 59.4997 76.3166 59.9283C75.886 60.3569 75.3024 60.5982 74.6934 60.5994Z" fill="#D2D5D9"/>
<path d="M74.6951 68.2187H54.0179C53.6118 68.2183 53.2224 68.0575 52.9352 67.7717C52.648 67.4858 52.4864 67.0982 52.486 66.6939C52.4862 66.2897 52.6477 65.902 52.935 65.6162C53.2223 65.3305 53.6118 65.1699 54.0179 65.1699H74.6951C75.1011 65.1703 75.4904 65.331 75.7776 65.6167C76.0648 65.9024 76.2264 66.2898 76.227 66.6939C76.227 67.0983 76.0656 67.4862 75.7783 67.7721C75.491 68.0581 75.1014 68.2187 74.6951 68.2187ZM70.1002 75.841H54.0179C53.6119 75.8406 53.2226 75.68 52.9354 75.3943C52.6483 75.1086 52.4866 74.7212 52.486 74.317C52.4859 74.1168 52.5255 73.9184 52.6024 73.7334C52.6794 73.5484 52.7922 73.3802 52.9345 73.2386C53.0768 73.097 53.2457 72.9847 53.4316 72.9081C53.6175 72.8315 53.8167 72.7922 54.0179 72.7923H70.1002C70.5063 72.7923 70.8959 72.9529 71.1831 73.2387C71.4703 73.5246 71.6317 73.9123 71.6317 74.3166C71.6317 74.7209 71.4703 75.1087 71.1831 75.3945C70.8959 75.6804 70.5063 75.841 70.1002 75.841ZM74.6951 83.4641H54.0179C53.7147 83.4647 53.4181 83.3757 53.1658 83.2083C52.9135 83.0408 52.7169 82.8026 52.6008 82.5237C52.4848 82.2449 52.4546 81.938 52.5141 81.642C52.5736 81.3461 52.7201 81.0744 52.935 80.8614C53.0772 80.7199 53.246 80.6076 53.4318 80.531C53.6176 80.4545 53.8168 80.4152 54.0179 80.4153H74.6951C74.9982 80.4149 75.2946 80.504 75.5467 80.6714C75.7988 80.8388 75.9954 81.0769 76.1114 81.3556C76.2273 81.6343 76.2576 81.941 76.1983 82.2368C76.1389 82.5326 75.9927 82.8043 75.778 83.0173C75.6359 83.1589 75.4671 83.2713 75.2812 83.3479C75.0954 83.4246 74.8962 83.4641 74.6951 83.4641Z" fill="#F0F1F2"/>
<path d="M33.3315 56.0254H30.2677V57.5502H33.3308L33.3315 56.0254ZM27.2047 56.0254H24.1417V57.5502H27.2047V56.0254ZM27.2047 88.0403H24.1417V89.565H27.2047V88.0403ZM39.4576 56.0254H36.3946V57.5502H39.4576V56.0254ZM45.5836 74.3196H44.0525V77.3691H45.5844L45.5836 74.3196ZM21.0787 57.5502H19.5475V59.0749H18.0156V57.5502C18.0164 57.1462 18.178 56.7589 18.4649 56.4731C18.7519 56.1874 19.1409 56.0264 19.5468 56.0254H21.0787V57.5502ZM19.5475 74.3196H18.0156V77.3691H19.5468L19.5475 74.3196ZM45.5852 80.4179H44.0517V83.4667H45.5836V80.4179H45.5852ZM19.5468 80.4179H18.0156V83.4667H19.5468V80.4179ZM44.0533 59.0749V57.5502H42.5221V56.0254H44.0533C44.4592 56.0264 44.8483 56.1874 45.1354 56.4731C45.4224 56.7588 45.5842 57.1461 45.5852 57.5502V59.0749H44.0517H44.0533ZM39.4583 88.0403H36.3953V89.565H39.4583V88.0403ZM45.5844 62.1237H44.0533V65.1725H45.5852L45.5844 62.1237ZM19.5475 62.1237H18.0156V65.1725H19.5468L19.5475 62.1237ZM45.5852 68.222H44.0517V71.2708H45.5836V68.222H45.5852ZM19.5468 68.222H18.0156V71.2708H19.5468V68.222ZM42.5214 88.0403H44.0533V86.5162H45.5852V88.0403C45.5836 88.4442 45.4216 88.831 45.1347 89.1166C44.8478 89.4023 44.4591 89.5634 44.0533 89.565H42.5221L42.5214 88.0403ZM19.5468 86.5162V88.0403H21.0787V89.565H19.5475C19.1417 89.5634 18.753 89.4023 18.4661 89.1166C18.1791 88.831 18.0172 88.4442 18.0156 88.0403V86.5162H19.5468ZM33.3323 88.0403H30.2685V89.565H33.3315L33.3323 88.0403Z" fill="#D2D5D9"/>
<path d="M58.6094 75.8437C58.6096 75.0352 58.9323 74.2598 59.5067 73.6881C60.0811 73.1164 60.8601 72.7951 61.6724 72.7949H123.934C124.746 72.7951 125.525 73.1164 126.1 73.6881C126.674 74.2598 126.997 75.0352 126.997 75.8437V112.873C126.997 113.681 126.674 114.457 126.1 115.028C125.525 115.6 124.746 115.921 123.934 115.922H61.6724C60.8601 115.921 60.0811 115.6 59.5067 115.028C58.9323 114.457 58.6096 113.681 58.6094 112.873V75.8437Z" fill="#D9942D"/>
<path d="M92.7969 101.889L126.991 74.8691V112.868C126.991 113.269 126.912 113.665 126.759 114.035C126.605 114.405 126.379 114.742 126.094 115.025C125.81 115.308 125.472 115.533 125.1 115.686C124.728 115.839 124.33 115.917 123.927 115.917H111.33L92.7969 101.889Z" fill="#E0A143"/>
<path d="M92.81 101.892L127.004 74.8731C127.008 74.6019 126.957 74.3327 126.856 74.081C126.754 73.8293 126.604 73.6002 126.412 73.407C126.221 73.2138 125.993 73.0603 125.742 72.9553C125.491 72.8502 125.222 72.7957 124.949 72.7949H60.6815C60.4085 72.7946 60.1381 72.8485 59.8862 72.9535C59.6343 73.0584 59.406 73.2124 59.2146 73.4062C59.0222 73.599 58.8703 73.828 58.7678 74.0799C58.6652 74.3317 58.6141 74.6014 58.6173 74.8731L92.81 101.892Z" fill="#E9AF58"/>
<g filter="url(#filter1_d_896_17528)">
<path d="M36.7714 38.4941H6.92577C6.41357 38.4976 5.92354 38.7026 5.56271 39.0644C5.20188 39.4263 4.99959 39.9156 5 40.4254V80.0124C4.99959 80.5221 5.20191 81.0113 5.56276 81.3731C5.9236 81.7348 6.41364 81.9397 6.92577 81.9429H36.7714C37.2834 81.9397 37.7734 81.7348 38.1341 81.373C38.4948 81.0112 38.697 80.5221 38.6964 80.0124V40.4254C38.6968 39.9157 38.4946 39.4265 38.1339 39.0647C37.7733 38.7029 37.2834 38.4978 36.7714 38.4941Z" fill="white"/>
</g>
<path d="M29.0771 49.7978V47.1677C29.0779 47.0904 29.0634 47.0137 29.0343 46.9421C29.0052 46.8705 28.9621 46.8053 28.9076 46.7503C28.853 46.6953 28.7881 46.6516 28.7165 46.6217C28.645 46.5919 28.5681 46.5764 28.4905 46.5762H20.2475C20.1699 46.5764 20.0931 46.5919 20.0216 46.6218C19.95 46.6517 19.8852 46.6954 19.8307 46.7504C19.7762 46.8054 19.7332 46.8706 19.7042 46.9422C19.6752 47.0138 19.6607 47.0904 19.6617 47.1677V49.8046C19.6631 49.9841 19.6289 50.1622 19.5611 50.3286C19.4933 50.4949 19.3932 50.6464 19.2666 50.7742C19.1399 50.902 18.9892 51.0038 18.823 51.0736C18.6568 51.1433 18.4784 51.1798 18.298 51.1809C17.7282 51.1854 17.1834 51.4147 16.7833 51.8187C16.3832 52.2226 16.1606 52.768 16.1642 53.3353V72.0725C16.1573 72.6492 16.3762 73.206 16.7744 73.625C17.1727 74.044 17.7191 74.2923 18.298 74.3174H30.44C31.0192 74.2931 31.5661 74.045 31.9645 73.6259C32.3629 73.2067 32.5815 72.6495 32.5738 72.0725V53.3284C32.5775 52.7612 32.3548 52.2157 31.9547 51.8118C31.5546 51.4079 31.0098 51.1785 30.44 51.1741C30.2594 51.1736 30.0808 51.1375 29.9143 51.0679C29.7478 50.9984 29.5969 50.8967 29.4701 50.7687C29.3433 50.6407 29.2432 50.4891 29.1757 50.3224C29.1081 50.1558 29.0751 49.9775 29.0771 49.7978Z" fill="#F0F1F2"/>
<path d="M23.097 68.2448V46.7077L20.245 46.5684C20.1666 46.5686 20.0891 46.5842 20.0168 46.6144C19.9445 46.6446 19.879 46.6888 19.8239 46.7443C19.7689 46.7999 19.7254 46.8658 19.6961 46.9381C19.6668 47.0105 19.6522 47.0879 19.6531 47.1659V49.8029C19.6553 49.9816 19.6221 50.1589 19.5554 50.3248C19.4887 50.4907 19.3898 50.6419 19.2644 50.7697C19.139 50.8976 18.9894 50.9995 18.8244 51.0698C18.6593 51.14 18.482 51.1772 18.3024 51.1792C18.0192 51.1798 17.739 51.2361 17.4777 51.3448C17.2164 51.4535 16.9792 51.6125 16.7798 51.8126C16.5804 52.0128 16.4227 52.2502 16.3157 52.5112C16.2087 52.7722 16.1546 53.0517 16.1564 53.3335V72.0708C16.1505 72.574 16.3102 73.0653 16.6113 73.4696C16.9124 73.8739 17.3382 74.1689 17.8237 74.3096H27.9206C25.2606 74.3035 23.097 70.9297 23.097 68.2448Z" fill="#D2D5D9"/>
<path d="M30.1239 49.1255H18.6228C18.4982 49.1245 18.3791 49.0743 18.2916 48.9859C18.2041 48.8976 18.1554 48.7783 18.1563 48.6543V45.824C18.1556 45.7001 18.2044 45.581 18.2919 45.4928C18.3793 45.4046 18.4983 45.3545 18.6228 45.3535H30.1239C30.2483 45.3545 30.3673 45.4046 30.4548 45.4928C30.5422 45.581 30.591 45.7001 30.5904 45.824V48.6543C30.5912 48.7783 30.5425 48.8976 30.4551 48.9859C30.3676 49.0743 30.2485 49.1245 30.1239 49.1255Z" fill="#975D48"/>
<path d="M23.5709 49.1255H18.615C18.4904 49.1245 18.3712 49.0743 18.2838 48.9859C18.1963 48.8976 18.1476 48.7783 18.1484 48.6543V45.824C18.1478 45.7001 18.1966 45.581 18.284 45.4928C18.3715 45.4046 18.4905 45.3545 18.615 45.3535H23.5709V49.1255Z" fill="#6D493C"/>
<path d="M20.7176 56.1281V54.1732C20.7183 54.1157 20.7076 54.0586 20.686 54.0053C20.6644 53.9519 20.6325 53.9034 20.5919 53.8624C20.5514 53.8214 20.5031 53.7888 20.4499 53.7665C20.3966 53.7442 20.3395 53.7326 20.2817 53.7324H14.1709C14.1131 53.7324 14.0558 53.7439 14.0025 53.7661C13.9491 53.7883 13.9008 53.8209 13.8602 53.8619C13.8196 53.9029 13.7877 53.9516 13.7662 54.005C13.7447 54.0585 13.7341 54.1156 13.735 54.1732V56.1281C13.7366 56.3965 13.6313 56.6546 13.442 56.8458C13.2528 57.037 12.9951 57.1457 12.7254 57.1481C12.5157 57.1492 12.3082 57.1915 12.1148 57.2727C11.9215 57.3538 11.7462 57.4721 11.599 57.6209C11.4517 57.7696 11.3355 57.9459 11.2568 58.1395C11.1782 58.3331 11.1388 58.5402 11.1408 58.749V72.6448C11.1348 73.073 11.297 73.4867 11.5928 73.7978C11.8886 74.1088 12.2947 74.2927 12.7247 74.3104H21.734C22.1637 74.2922 22.5694 74.1081 22.865 73.7971C23.1605 73.4861 23.3227 73.0728 23.3172 72.6448V58.7475C23.3195 58.4333 23.2283 58.1254 23.055 57.8627C22.8817 57.6 22.6342 57.3943 22.3436 57.2714C22.1504 57.1903 21.943 57.1478 21.7333 57.1466C21.5992 57.1467 21.4664 57.1204 21.3426 57.0691C21.2188 57.0179 21.1064 56.9428 21.0119 56.8481C20.9174 56.7534 20.8427 56.641 20.792 56.5174C20.7414 56.3939 20.7166 56.2615 20.7176 56.1281Z" fill="#F0F1F2"/>
<path d="M16.2861 69.8091V53.8352L14.1699 53.7324C14.1113 53.7326 14.0533 53.7444 13.9994 53.767C13.9454 53.7896 13.8964 53.8226 13.8553 53.8642C13.8142 53.9057 13.7818 53.9549 13.7599 54.009C13.738 54.0631 13.7271 54.121 13.7278 54.1793V56.1341C13.7309 56.3342 13.6739 56.5305 13.5641 56.6981C13.4542 56.8656 13.2966 56.9966 13.1114 57.0743C12.9885 57.1262 12.8564 57.1534 12.7229 57.1542C12.2987 57.1562 11.8927 57.3257 11.594 57.6254C11.4463 57.7743 11.3296 57.9507 11.2505 58.1446C11.1713 58.3384 11.1314 58.5459 11.1329 58.7551V72.6524C11.1306 73.0258 11.25 73.3899 11.473 73.6902C11.6961 73.9905 12.0109 74.2107 12.3703 74.318H19.8608C17.8868 74.3104 16.2861 71.8059 16.2861 69.8091Z" fill="#D2D5D9"/>
<path d="M21.8898 55.2615H12.5653C12.4647 55.2603 12.3686 55.2196 12.2979 55.1484C12.2271 55.0771 12.1875 54.981 12.1875 54.8808V52.5857C12.1875 52.4855 12.2271 52.3894 12.2979 52.3182C12.3686 52.2469 12.4647 52.2063 12.5653 52.2051H21.8898C21.9904 52.2063 22.0865 52.2469 22.1572 52.3182C22.2279 52.3894 22.2676 52.4855 22.2676 52.5857V54.8808C22.2676 54.981 22.2279 55.0771 22.1572 55.1484C22.0865 55.2196 21.9904 55.2603 21.8898 55.2615Z" fill="#975D48"/>
<path d="M16.5836 55.2615H12.5661C12.4653 55.2605 12.369 55.2199 12.2981 55.1487C12.2273 55.0774 12.1875 54.9811 12.1875 54.8808V52.5857C12.1875 52.4854 12.2273 52.3892 12.2981 52.3179C12.369 52.2466 12.4653 52.2061 12.5661 52.2051H16.5836V55.2615Z" fill="#6D493C"/>
<defs>
<filter id="filter0_d_896_17528" x="1.13281" y="0" width="98.1138" height="109.947" filterUnits="userSpaceOnUse" color-interpolation-filters="sRGB">
<feFlood flood-opacity="0" result="BackgroundImageFix"/>
<feColorMatrix in="SourceAlpha" type="matrix" values="0 0 0 0 0 0 0 0 0 0 0 0 0 0 0 0 0 0 127 0" result="hardAlpha"/>
<feOffset dy="2"/>
<feGaussianBlur stdDeviation="5"/>
<feColorMatrix type="matrix" values="0 0 0 0 0 0 0 0 0 0 0 0 0 0 0 0 0 0 0.3 0"/>
<feBlend mode="normal" in2="BackgroundImageFix" result="effect1_dropShadow_896_17528"/>
<feBlend mode="normal" in="SourceGraphic" in2="effect1_dropShadow_896_17528" result="shape"/>
</filter>
<filter id="filter1_d_896_17528" x="0" y="34.4941" width="43.6963" height="53.4492" filterUnits="userSpaceOnUse" color-interpolation-filters="sRGB">
<feFlood flood-opacity="0" result="BackgroundImageFix"/>
<feColorMatrix in="SourceAlpha" type="matrix" values="0 0 0 0 0 0 0 0 0 0 0 0 0 0 0 0 0 0 127 0" result="hardAlpha"/>
<feOffset dy="1"/>
<feGaussianBlur stdDeviation="2.5"/>
<feColorMatrix type="matrix" values="0 0 0 0 0 0 0 0 0 0 0 0 0 0 0 0 0 0 0.3 0"/>
<feBlend mode="normal" in2="BackgroundImageFix" result="effect1_dropShadow_896_17528"/>
<feBlend mode="normal" in="SourceGraphic" in2="effect1_dropShadow_896_17528" result="shape"/>
</filter>
</defs>
</svg>
