<svg width="117" height="76" viewBox="0 0 117 76" fill="none" xmlns="http://www.w3.org/2000/svg">
<rect width="117" height="76" fill="#F7F7F7"/>
<path d="M42.0364 21.0547L46.6993 29.2468H64.0538V23.6575L42.0364 21.0547ZM44.2625 30.683V32.2469H64.7719C68.6019 32.2469 71.3307 34.5848 73.0063 37.3775C74.5223 39.8909 75.2564 42.7793 75.392 45.0054H76.9958C76.8283 42.3883 75.783 38.9254 74.0276 36.0849C72.1047 32.981 69.4157 30.683 66.2081 30.683H44.2625ZM45.3229 33.6832C45.0716 34.0582 44.6048 34.888 44.1364 35.9652C43.5508 37.3136 42.8917 39.061 42.2773 40.984C41.0493 44.8379 40.0049 49.4019 40.0049 52.785C40.0049 53.2638 40.2658 53.8303 40.6863 54.2612C41.1068 54.6841 41.6597 54.9474 42.1217 54.9474H67.6444C68.0912 54.9474 68.6497 54.6841 69.0726 54.2612C69.4955 53.8303 69.7588 53.2638 69.7588 52.785C69.7588 49.4019 68.7136 44.8379 67.4768 40.984C66.8624 39.061 66.2002 37.3136 65.6097 35.9652C65.1389 34.888 64.6682 34.0582 64.4128 33.6832H45.3229ZM43.2611 44.3113H66.4475C67.0459 46.6332 67.4688 49.0748 67.4688 51.0376C67.4688 52.1387 66.3039 53.2957 65.1389 53.2957H44.5402C43.4 53.2957 42.2478 52.1387 42.2478 51.0376C42.2478 49.0748 42.6659 46.6332 43.2611 44.3113Z" fill="#E3E3E3"/>
</svg>
