<svg width="105" height="33" viewBox="0 0 105 33" fill="none" xmlns="http://www.w3.org/2000/svg">
<path d="M0 30.3277C0 16.0268 0 8.88873 4.43662 4.4382C8.87324 0 16.0211 0 30.3169 0H88.5475C97.6303 0 105 7.37235 105 16.4583C105 25.5443 97.6303 32.9167 88.5475 32.9167H0V30.3277Z" fill="#5724E9"/>
<path d="M9.11963 10.1092H14.1478C17.1302 10.1092 18.9172 11.5147 18.9172 14.3379C18.9172 16.9268 17.4629 18.4555 14.4066 18.4555H12.0281V21.7965H9.11963V10.1092ZM14.2834 16.4953C15.5034 16.4953 16.1812 15.8419 16.1812 14.4735C16.1812 13.142 15.4418 12.4023 14.0492 12.4023H12.0281V16.5076H14.2834V16.4953Z" fill="white"/>
<path d="M19.2378 17.4199C19.2378 14.5598 21.1234 12.8708 24.0072 12.8708C26.891 12.8708 28.7765 14.5598 28.7765 17.4199C28.7765 20.2555 26.891 21.9321 24.0072 21.9321C21.1234 21.9321 19.2378 20.2555 19.2378 17.4199ZM26.0899 17.4199C26.0899 15.8542 25.3258 14.9296 24.0195 14.9296C22.7008 14.9296 21.9367 15.8542 21.9367 17.4199C21.9367 18.961 22.7008 19.8733 24.0195 19.8733C25.3258 19.8733 26.0899 18.961 26.0899 17.4199Z" fill="white"/>
<path d="M29.4419 18.8377H31.8574C31.8574 19.6514 32.2641 20.1815 33.8045 20.1815C35.2095 20.1815 35.7024 19.7747 35.7024 19.1336C35.7024 18.813 35.5422 18.5665 35.0862 18.4555C34.4084 18.3322 33.7306 18.2459 33.0405 18.209C31.7834 18.098 30.8098 17.9131 30.2676 17.5309C29.9964 17.3336 29.7869 17.0624 29.6391 16.7665C29.4912 16.4707 29.4172 16.1378 29.4295 15.8049C29.4295 13.9064 31.3767 12.8585 33.8169 12.8585C36.6883 12.8585 38.007 13.9557 38.007 16.0022H35.6285C35.6038 15.0776 35.1848 14.5968 33.8538 14.5968C32.6461 14.5968 32.1162 15.0036 32.1162 15.6077C32.1162 15.9775 32.2641 16.2611 32.757 16.3844C33.2007 16.4953 33.9771 16.557 34.926 16.6556C36.0105 16.7665 36.7746 16.8652 37.4278 17.2473C37.7236 17.4199 37.9824 17.6788 38.1549 17.987C38.3274 18.2953 38.4137 18.6405 38.4137 18.9856C38.4137 20.8349 36.8362 21.9198 33.8415 21.9198C30.7359 21.9321 29.4419 20.613 29.4419 18.8377Z" fill="white"/>
<path d="M39.9788 18.7637V15.1022H38.6848V13.0064H39.7323C40.139 13.0064 40.2869 12.7722 40.3362 12.2421L40.4595 11.0215H42.6778V13.0064H45.4753V15.1022H42.6655V18.6158C42.6655 19.5158 43.0968 19.8117 44.1566 19.8117C44.5633 19.8117 44.9824 19.7623 45.3767 19.6884V21.7225C44.8221 21.8458 44.2429 21.9075 43.676 21.9198C40.9524 21.9321 39.9788 20.7239 39.9788 18.7637Z" fill="white"/>
<path d="M46.1777 18.8377H48.5932C48.5932 19.6514 48.9999 20.1815 50.5404 20.1815C51.9453 20.1815 52.4383 19.7747 52.4383 19.1336C52.4383 18.813 52.2781 18.5665 51.8221 18.4555C51.1443 18.3322 50.4664 18.2459 49.7763 18.209C48.5193 18.098 47.5457 17.9131 47.0034 17.5309C46.7323 17.3336 46.5228 17.0624 46.3749 16.7665C46.227 16.4707 46.1531 16.1378 46.1654 15.8049C46.1654 13.9064 48.1126 12.8585 50.5527 12.8585C53.4242 12.8585 54.7429 13.9557 54.7429 16.0022H52.3767C52.3643 15.0776 51.933 14.5968 50.602 14.5968C49.3943 14.5968 48.8643 15.0036 48.8643 15.6077C48.8643 15.9775 48.9999 16.2611 49.5052 16.3844C49.9488 16.4953 50.7252 16.557 51.6742 16.6556C52.7587 16.7665 53.5228 16.8652 54.176 17.2473C54.4717 17.4323 54.7305 17.6788 54.8907 17.987C55.0633 18.2953 55.1495 18.6405 55.1372 18.9856C55.1372 20.8349 53.5598 21.9198 50.5527 21.9198C47.4717 21.9321 46.1777 20.613 46.1777 18.8377Z" fill="white"/>
<path d="M55.5811 17.4199C55.5811 14.5598 57.442 12.8708 60.1409 12.8708C62.7166 12.8708 64.405 14.3132 64.405 16.7419H62.0265C62.0142 15.6077 61.3363 14.9296 60.2395 14.9296C58.9825 14.9296 58.2923 15.8049 58.2923 17.3953C58.2923 18.9363 59.0071 19.861 60.1902 19.861C61.3487 19.861 62.0388 19.2076 62.0511 18.0857H64.4296C64.4296 20.6007 62.6427 21.9198 60.0423 21.9198C57.405 21.9321 55.5811 20.2555 55.5811 17.4199Z" fill="white"/>
<path d="M65.4648 13.0187H68.1638L68.0529 15.5214H68.0898C68.4596 13.8571 69.3962 12.8708 71.1215 12.8708C72.9085 12.8708 73.956 14.0297 73.956 16.2981C73.956 16.7912 73.9067 17.5802 73.8698 18.0364H71.4296C71.4666 17.6172 71.4789 17.1611 71.4789 16.9022C71.4789 15.62 70.9613 15.1145 70.111 15.1145C68.9525 15.1145 68.1638 16.0515 68.1638 18.0117V21.7965H65.4648V13.0187Z" fill="white"/>
<path d="M77.6655 13.0187H74.9666V21.7842H77.6655V13.0187Z" fill="white"/>
<path d="M79.0458 13.0187H81.7447L81.6954 14.8063H81.7077C82.0405 13.5982 83.162 12.8708 84.6655 12.8708C87.118 12.8708 88.7077 14.6091 88.7077 17.198C88.7077 20.0336 87.1056 21.9198 84.6408 21.9198C83.0387 21.9198 82.0528 21.2664 81.6584 20.1938H81.6461C81.6831 20.7856 81.7324 21.6486 81.7324 21.9691V25.2978H79.0334V13.0187H79.0458ZM86.0334 17.309C86.0334 15.8912 85.2201 14.9296 83.9877 14.9296C82.632 14.9296 81.7324 15.9036 81.7324 17.383V17.7775C81.7324 19.035 82.632 19.8733 84 19.8733C85.2201 19.8733 86.0334 18.8377 86.0334 17.309Z" fill="white"/>
<path d="M90.3714 18.7637V15.1022H89.0774V13.0064H90.1249C90.5316 13.0064 90.6795 12.7722 90.7288 12.2421L90.852 11.0215H93.0704V13.0064H95.8802V15.1022H93.0704V18.6158C93.0704 19.5158 93.4894 19.8117 94.5615 19.8117C94.9682 19.8117 95.3873 19.7623 95.7816 19.6884V21.7225C95.227 21.8458 94.6478 21.9075 94.0809 21.9198C91.345 21.9321 90.3714 20.7239 90.3714 18.7637Z" fill="white"/>
<path d="M77.9368 10.9969C77.9368 11.2434 77.8751 12.1188 76.4579 12.1188H74.979V10.9969C74.979 10.3188 75.5213 9.86267 76.4579 9.86267C77.2713 9.86267 77.9368 10.1955 77.9368 10.9969Z" fill="white"/>
</svg>
