<svg width="122" height="116" viewBox="0 0 122 116" fill="none" xmlns="http://www.w3.org/2000/svg">
<path d="M59.1698 115.801C88.2753 115.801 111.871 92.0169 111.871 62.6781C111.871 33.3393 88.2753 9.55469 59.1698 9.55469C30.0634 9.55469 6.46875 33.3393 6.46875 62.6781C6.46875 92.0169 30.0634 115.801 59.1698 115.801Z" fill="#F0F1F2"/>
<path d="M35.3828 90.6523H47.5631L43.1339 102.931H39.812L35.3828 90.6523ZM71.9255 90.6523H84.1058L79.6766 102.931H76.3547L71.9255 90.6523Z" fill="#9FA5AB"/>
<path d="M21.7812 37.2079H92.3578C93.7997 37.2079 94.7533 38.6989 94.3674 40.1033L86.7948 67.7486C86.5913 68.4869 86.1758 69.148 85.6004 69.6486C85.025 70.1493 84.3155 70.4673 83.5613 70.5624L39.0816 76.115L21.7812 37.2079Z" fill="#B6BABF"/>
<path d="M104.45 89.832C95.2296 105.39 78.6341 116 59.4001 116C40.1661 116 23.2516 105.587 14.0312 90.0286L104.45 89.832Z" fill="#D2D5D9"/>
<path d="M33.9609 31.1522C33.9609 30.2685 34.3092 29.421 34.9291 28.7962C35.5489 28.1713 36.3897 27.8203 37.2663 27.8203H53.5842C54.0182 27.8203 54.448 27.9065 54.8491 28.0739C55.2501 28.2414 55.6145 28.4868 55.9214 28.7962C56.2283 29.1056 56.4718 29.4729 56.6379 29.8771C56.804 30.2814 56.8895 30.7146 56.8895 31.1522V49.4875H35.6136C35.1753 49.4875 34.7549 49.312 34.445 48.9995C34.1351 48.6871 33.9609 48.2634 33.9609 47.8215V31.1522Z" fill="#9FA5AB"/>
<path d="M33.9609 29.4862C33.9609 29.0444 34.1351 28.6207 34.445 28.3083C34.7549 27.9958 35.1753 27.8203 35.6136 27.8203H55.2369C55.6752 27.8203 56.0955 27.9958 56.4055 28.3083C56.7154 28.6207 56.8895 29.0444 56.8895 29.4862V37.2095H33.9609V29.4862Z" fill="#828A91"/>
<path d="M41.473 109.434C42.2728 109.434 43.0647 109.275 43.8036 108.967C44.5425 108.658 45.2139 108.206 45.7794 107.636C46.3449 107.066 46.7935 106.389 47.0996 105.645C47.4056 104.9 47.5631 104.101 47.5631 103.295C47.5631 102.489 47.4056 101.691 47.0996 100.946C46.7935 100.201 46.3449 99.5244 45.7794 98.9543C45.2139 98.3843 44.5425 97.9321 43.8036 97.6235C43.0647 97.315 42.2728 97.1562 41.473 97.1563C39.8578 97.1563 38.3087 97.803 37.1666 98.9543C36.0245 100.106 35.3828 101.667 35.3828 103.295C35.3828 104.923 36.0245 106.485 37.1666 107.636C38.3087 108.787 39.8578 109.434 41.473 109.434ZM78.0156 109.434C78.8154 109.434 79.6073 109.275 80.3462 108.967C81.0851 108.658 81.7565 108.206 82.322 107.636C82.8876 107.066 83.3362 106.389 83.6422 105.645C83.9483 104.9 84.1058 104.101 84.1058 103.295C84.1058 102.489 83.9483 101.691 83.6422 100.946C83.3362 100.201 82.8876 99.5244 82.322 98.9543C81.7565 98.3843 81.0851 97.9321 80.3462 97.6235C79.6073 97.315 78.8154 97.1562 78.0156 97.1563C76.4004 97.1563 74.8514 97.803 73.7092 98.9543C72.5671 100.106 71.9255 101.667 71.9255 103.295C71.9255 104.923 72.5671 106.485 73.7092 107.636C74.8514 108.787 76.4004 109.434 78.0156 109.434Z" fill="#0B614E"/>
<path d="M36.0581 94.2663C33.8195 94.2663 31.5504 93.2067 29.7779 91.4833C27.6269 89.3901 26.3403 86.4006 26.3403 83.486C26.3403 83.2919 26.3461 83.1028 26.3585 82.9154C26.5204 80.1391 27.9624 77.5886 30.3067 75.9085L34.3971 72.9756L15.7457 32.5825L2.94974 28.5276C2.60108 28.4175 2.27737 28.2392 1.99709 28.0029C1.7168 27.7666 1.48545 27.477 1.31624 27.1506C1.14704 26.8241 1.04329 26.4673 1.01093 26.1004C0.978571 25.7336 1.01823 25.3639 1.12765 25.0125C1.23691 24.6609 1.41382 24.3345 1.64827 24.0519C1.88273 23.7693 2.17014 23.5361 2.49406 23.3655C2.81799 23.195 3.1721 23.0904 3.53613 23.0578C3.90016 23.0253 4.267 23.0654 4.61566 23.1758L18.5743 27.6005C19.3205 27.8387 19.9295 28.3777 20.26 29.0915L40.4039 72.7191C40.6772 73.3127 40.7361 73.9841 40.5703 74.6169C40.4044 75.2497 40.0243 75.8041 39.4957 76.1842L33.5146 80.4715C32.5643 81.1545 31.9611 82.1882 31.8983 83.2411C31.8925 83.3227 31.8925 83.4044 31.8925 83.486C31.8925 84.8646 32.5759 86.4189 33.6328 87.4534C34.0559 87.8666 34.9202 88.5438 35.9713 88.5438H88.4145C89.9499 88.5438 91.2803 89.8291 91.2803 91.3767C91.2803 92.9252 89.9499 94.2663 88.4145 94.2663H36.0581Z" fill="#1A7F61"/>
<path d="M18.5804 27.5976L4.61514 23.1795C4.26659 23.0692 3.89988 23.0292 3.53598 23.0618C3.17208 23.0943 2.81811 23.1988 2.49428 23.3693C2.17046 23.5398 1.88312 23.7729 1.64868 24.0554C1.41425 24.3378 1.23731 24.664 1.12796 25.0154C1.0184 25.3668 0.978606 25.7365 1.01085 26.1034C1.04309 26.4703 1.14674 26.8272 1.31588 27.1538C1.48501 27.4803 1.71632 27.77 1.99658 28.0064C2.27683 28.2427 2.60055 28.4211 2.94923 28.5314L15.4841 32.5046C16.6562 30.9154 17.9142 29.3924 19.2522 27.9424C19.0458 27.7956 18.8196 27.6794 18.5804 27.5976Z" fill="#1A7F61"/>
<path d="M39.2259 50.9952L42.1941 70.6557C42.2958 71.3288 42.9106 71.7969 43.5807 71.7111L70.3659 68.1951C70.6914 68.1535 70.9874 67.9838 71.1892 67.7231C71.3911 67.4623 71.4825 67.1317 71.4434 66.8033L69.0512 46.6046C69.0314 46.4383 68.9788 46.2776 68.8964 46.1322C68.814 45.9867 68.7036 45.8593 68.5715 45.7576C68.4395 45.6559 68.2886 45.5819 68.1277 45.5399C67.9668 45.498 67.7992 45.489 67.6348 45.5134L40.2729 49.5666C40.1109 49.5908 39.9552 49.6469 39.8148 49.7318C39.6743 49.8167 39.5519 49.9288 39.4546 50.0615C39.3572 50.1943 39.2868 50.3451 39.2474 50.5053C39.2081 50.6655 39.2013 50.832 39.2259 50.9952Z" fill="#9FA5AB"/>
<path d="M77.0312 21.6572C77.0312 33.6186 86.6507 43.3143 98.5162 43.3143C110.382 43.3143 120.001 33.6186 120.001 21.6572C120.001 9.69575 110.382 0 98.5162 0C86.6507 0 77.0312 9.69575 77.0312 21.6572Z" fill="#1A7F61"/>
<path d="M89.8731 23.905L94.1255 28.0723C94.7576 28.692 95.7864 28.692 96.4186 28.0723L107.153 17.5519C107.295 17.4149 107.407 17.2504 107.484 17.0684C107.562 16.8863 107.601 16.6903 107.601 16.4924C107.601 16.2944 107.562 16.0985 107.484 15.9164C107.407 15.7343 107.295 15.5698 107.153 15.4328C106.863 15.1502 106.475 14.9922 106.071 14.9922C105.668 14.9922 105.28 15.1502 104.989 15.4328L95.2683 24.9603L92.0274 21.7842C91.7372 21.5016 91.3496 21.3436 90.9461 21.3436C90.5426 21.3436 90.155 21.5016 89.8648 21.7842C89.724 21.9221 89.6122 22.0872 89.536 22.2696C89.4599 22.452 89.4211 22.648 89.4219 22.8459C89.4227 23.0438 89.463 23.2396 89.5405 23.4214C89.6181 23.6032 89.7312 23.7674 89.8731 23.9041V23.905Z" fill="white"/>
</svg>
