<svg xmlns="http://www.w3.org/2000/svg" width="320" height="172" fill="none" viewBox="0 0 320 172">
  <path fill="#F1F1F1" d="M0 0h320v172H0z"/>
  <path fill="#000" d="M173.248 25.598a2.69 2.69 0 0 0 1.843-.73 2.621 2.621 0 0 0 .799-1.788c0-.685-.288-1.347-.777-1.833a2.63 2.63 0 0 0-1.843-.773 2.601 2.601 0 0 0-1.82.795 2.457 2.457 0 0 0-.733 1.81c0 .663.266 1.304.755 1.79.466.442 1.11.707 1.776.729Zm17.896 2.43h6.35v.507a3.174 3.174 0 0 0-.999.354c-.578.265-1.732 1.568-2.642 3.754-1.51 3.777-3.087 8.26-4.752 13.384l-.622 1.944c-.266.883-.51 1.458-.621 1.789-.111.353-.267.883-.533 1.524a7.946 7.946 0 0 1-.6 1.413c-.311.575-.888 1.745-1.354 2.098-.733.619-1.821 1.304-3.175 1.193-2.642 0-4.618-1.943-4.641-4.24 0-1.569 1-2.606 2.509-2.606 1.088 0 2.043.574 2.043 1.788 0 .884-.888 1.79-.888 2.253 0 1.193.688 1.745 2.043 1.745 1.088 0 1.976-.685 2.642-2.054.888-1.568.977-3.29.222-5.212l-5.573-14.577c-1.288-3.357-2.243-4.462-3.442-4.594v-.508h8.793v.508c-1.044.11-1.577.729-1.577 1.833 0 .795.311 2.032.888 3.6l1.044 2.827c1.199 3.07 2.176 5.742 2.664 7.421 1.133-3.49 2.176-6.537 3.175-9.21.733-1.988 1.088-3.401 1.088-4.24 0-1.502-.821-2.187-2.042-2.187v-.508Zm-61.125 18.618c-1.133-.199-2.087-1.193-2.087-3.291V18l-6.395 1.37v.53c1.088-.111 2.176.839 2.176 2.87v20.585c0 1.988-1.088 3.136-2.176 3.29-.111.023-.2.023-.311.045a3.412 3.412 0 0 1-1.621-.287c-.866-.376-1.576-1.038-2.176-2.01l-2.953-4.66a5.392 5.392 0 0 0-2.642-2.165 5.488 5.488 0 0 0-3.419-.176l3.33-3.645c2.509-2.76 4.841-4.505 7.039-5.234v-.508h-7.327v.508c1.887.729 1.776 2.341-.4 4.859l-4.663 5.389V18L100 19.37v.53c1.088 0 2.176 1.06 2.176 2.937v20.496c0 2.275-1.066 3.158-2.176 3.313v.508h8.482v-.508c-1.399-.199-2.088-1.26-2.088-3.291v-3.777l1.821-1.988 4.396 7.156c1.044 1.723 2.021 2.408 3.553 2.408h14.743v-.398c.022 0-.4-.022-.888-.11Zm17.584-2.408v-8.57c-.088-5.587-2.464-8.149-7.904-8.149a7.706 7.706 0 0 0-4.796 1.612c-1.443 1.083-2.131 2.297-2.131 3.71 0 1.37.777 2.408 2.042 2.408 1.355 0 2.332-.773 2.332-1.833 0-.795-.533-1.921-.533-2.672 0-1.37 1.043-2.562 2.864-2.562 2.331 0 3.997 1.722 3.997 5.543v2.297l-1.932.464c-.999.199-1.865.398-2.509.574-.666.2-1.51.464-2.509.84-2.02.773-3.086 1.502-4.019 2.87a3.909 3.909 0 0 0-.688 2.254c0 3.18 2.243 4.638 5.373 4.638 2.487 0 5.107-1.303 6.306-3.755.022.773.2 1.524.555 2.23 1.31 2.629 5.662 1.083 5.662 1.083v-.508c-1.954.287-2.11-1.944-2.11-2.474Zm-4.129-2.65c0 1.259-.467 2.297-1.399 3.026-.888.729-1.821 1.104-2.798 1.104-1.887 0-3.13-1.215-3.13-3.49 0-1.06.599-2.053 1.088-2.628.399-.397.843-.729 1.354-.95.666-.353.977-.53 1.443-.728l1.776-.64c.889-.354 1.421-.53 1.666-.641v4.947ZM229 28.028h-15.054V18H229l-3.153 5.014L229 28.027Zm-30.618 16.674a9.946 9.946 0 0 1-2.864-7.134 9.825 9.825 0 0 1 .71-3.82 9.985 9.985 0 0 1 2.154-3.27c1.909-1.987 4.219-2.981 6.95-2.981 2.664 0 4.995.994 6.905 2.982a9.746 9.746 0 0 1 2.176 3.246 9.493 9.493 0 0 1 .732 3.843 9.492 9.492 0 0 1-.732 3.843 10.182 10.182 0 0 1-2.176 3.27c-1.91 1.943-4.219 2.959-6.905 2.959-2.709.022-5.041-.972-6.95-2.938Zm10.435-13.892c-.755-1.48-1.776-2.341-2.953-2.584-2.398-.486-4.507 1.966-5.306 5.83a18.178 18.178 0 0 0-.244 5.257 14.415 14.415 0 0 0 1.465 5.058c.777 1.48 1.776 2.341 2.953 2.584 2.398.486 4.574-2.054 5.373-5.963.666-3.27.333-7.245-1.288-10.182Z"/>
  <path fill="#000" d="M175.49 43.354V28.026h-13.632v.464c1.82.265 2.686 1.634 1.865 3.82-4.263 11.441-3.997 10.933-4.263 11.839-.267-.883-.888-3.048-1.888-5.764-.999-2.717-1.665-4.506-1.931-5.323-1.044-3.18-.688-4.351.999-4.55v-.508h-8.837v.508c1.31.265 2.487 1.767 3.442 4.44l1.354 3.489c1.488 3.755 3.242 8.945 3.819 10.712h2.931c.954-2.717 4.729-13.583 5.24-14.688.555-1.259 1.176-2.208 1.865-2.87a3.21 3.21 0 0 1 1.199-.818 3.454 3.454 0 0 1 1.421-.265s2.131 0 2.131 2.032v12.832c0 2.142-1.043 3.136-2.131 3.29v.509h8.437v-.508c-1.088-.177-2.021-1.17-2.021-3.313Z"/>
  <path fill="#1A1E22" d="M244.738 81.255c0-.621-.44-1.035-1.165-1.035l-1.423.026.026 3.157h.776v-1.087h.466l.673 1.087h.905l-.802-1.216a1.059 1.059 0 0 0 .544-.932Zm-1.32.414h-.492v-.802h.569a.403.403 0 0 1 .44.336v.026a.454.454 0 0 1-.328.425.456.456 0 0 1-.189.015ZM128.623 95.85c-1.32 0-2.226-1.035-2.226-2.562v-6.96h5.435V81.41h-5.422l-.051-5.641h-6.004l.052 18.787c0 3.804 2.536 6.392 6.262 6.392 1.967 0 3.83-.284 5.305-.957v-4.788a7.068 7.068 0 0 1-3.351.647Zm14.336-14.75c-5.589 0-9.885 4.347-9.885 10.118 0 5.72 4.296 9.704 10.222 9.704 3.338 0 6.469-1.19 8.384-3.648l-4.606-2.097c-.932.854-2.355 1.19-3.623 1.19-2.07 0-4.14-1.06-4.425-3.234h13.741a9.244 9.244 0 0 0 .311-2.38c0-5.927-4.322-9.653-10.106-9.653h-.013Zm-3.933 8.229c.181-2.588 2.044-3.778 4.089-3.778 2.303 0 4.037 1.294 4.037 3.52v.258h-8.126Zm-24.377 6.521c-1.32 0-2.226-1.035-2.226-2.562v-6.96h5.435V81.41h-5.422l-.052-5.641h-6.003l.052 18.787c0 3.804 2.536 6.392 6.262 6.392 1.967 0 3.83-.284 5.305-.957v-4.788a7.01 7.01 0 0 1-3.351.647ZM93.559 81.1C88.408 81.1 83 84.49 83 91.322c0 5.693 3.83 9.678 8.67 9.678 2.768 0 4.864-1.113 6.236-3.08l.18 2.744h5.81v-9.11c0-6.935-5.11-10.454-10.338-10.454Zm0 14.647c-2.614 0-4.504-1.941-4.504-4.684 0-2.743 1.864-4.684 4.503-4.684 2.433 0 4.451 2.122 4.451 4.684 0 2.562-2.018 4.684-4.45 4.684Zm149.729-16.95c-1.889.026-3.105 1.242-3.079 3.053.026 1.812 1.268 3.002 3.157 2.976 1.837-.026 3.079-1.242 3.054-3.08-.026-1.837-1.268-2.975-3.132-2.95Zm.078 5.512c-1.475.026-2.484-.958-2.484-2.459 0-1.5.957-2.51 2.432-2.536 1.475-.026 2.459.958 2.485 2.485 0 1.475-.984 2.484-2.42 2.51h-.013Zm-29.423-2.873L209.75 93.6l-4.244-12.163h-6.521l7.815 19.202h5.849l7.815-19.202h-6.521Zm15.552-.336c-5.589 0-9.885 4.347-9.885 10.118 0 5.72 4.296 9.704 10.222 9.704 3.338 0 6.469-1.19 8.384-3.648l-4.606-2.097c-.932.854-2.355 1.19-3.623 1.19-2.07 0-4.14-1.06-4.425-3.234h13.741a9.244 9.244 0 0 0 .311-2.38c0-5.927-4.322-9.653-10.119-9.653Zm4.193 8.229h-8.126c.181-2.588 2.044-3.778 4.089-3.778 2.303 0 4.037 1.294 4.037 3.52v.258ZM194.353 73c-2.122 0-3.726 1.423-3.726 3.416 0 1.993 1.604 3.468 3.726 3.468s3.726-1.45 3.726-3.468c0-2.019-1.578-3.416-3.726-3.416Zm-27.249 8.074a7.03 7.03 0 0 0-6.082 3.312l-.207-2.95h-5.797v19.202h6.004V90.571c.13-2.406 2.07-4.244 4.192-4.244 2.381 0 3.468 1.786 3.468 4.037v10.248h5.978v-11.18c0-4.865-2.963-8.358-7.556-8.358Zm18.321 14.776c-1.32 0-2.225-1.035-2.225-2.562v-6.96h5.434V81.41H183.2l-.052-5.641h-6.004l.052 18.787c0 3.804 2.536 6.392 6.262 6.392 1.967 0 3.83-.284 5.305-.957v-4.788a7.007 7.007 0 0 1-3.338.647Zm5.9-14.414v19.202h6.056V81.436a5.483 5.483 0 0 1-6.056 0Z"/>
  <path fill="#0042E4" fill-rule="evenodd" d="m116.987 129.097 3.9 10.754 4.086-10.754h5.801L120.855 154h-5.738l2.934-7.716L111 129.097h5.987Zm61.267-.381c5.238 0 9.057 4.065 9.057 9.629 0 5.563-3.819 9.629-9.057 9.629-1.933 0-3.56-.511-4.802-1.498l-.081-.066-.069-.056v7.64h-5.589v-24.897h4.942v1.861l.028-.032c1.218-1.389 3.06-2.157 5.336-2.207l.121-.002.114-.001Zm-37.299 0c5.767 0 9.855 3.985 9.855 9.629 0 5.619-4.101 9.629-9.855 9.629-5.787 0-9.895-4.004-9.895-9.629 0-5.649 4.094-9.629 9.895-9.629ZM160.123 125v4.097h4.598v4.829h-4.598v6.665c0 1.491.724 2.312 2.042 2.362l.065.001.065.001c.894 0 1.572-.235 2.178-.818l.057-.056.15-.154h.042v5.326l-.171.083c-.921.44-1.488.638-3.056.638-4.432 0-6.865-2.412-6.96-6.918l-.002-.138v-.137l-.001-6.855h-2.022v-4.829h2.175V125h5.438Zm39.402 3.716c5.768 0 9.856 3.985 9.856 9.629 0 5.619-4.101 9.629-9.856 9.629-5.786 0-9.894-4.004-9.894-9.629 0-5.649 4.095-9.629 9.894-9.629Zm14.412 13.132a3.063 3.063 0 1 1 0 6.126 3.063 3.063 0 0 1 0-6.126Zm-36.52-8.112c-2.519 0-4.229 1.864-4.229 4.609 0 2.746 1.71 4.61 4.229 4.61 2.55 0 4.267-1.859 4.267-4.61 0-2.751-1.717-4.609-4.267-4.609Zm-36.463 0c-2.526 0-4.266 1.873-4.266 4.609 0 2.736 1.74 4.61 4.267 4.61 2.494 0 4.229-1.88 4.229-4.61 0-2.73-1.736-4.609-4.23-4.609Zm58.571 0c-2.526 0-4.267 1.873-4.267 4.609 0 2.736 1.741 4.61 4.267 4.61 2.494 0 4.229-1.88 4.229-4.61 0-2.73-1.735-4.609-4.229-4.609Z" clip-rule="evenodd"/>
</svg>
