<svg width="132" height="98" viewBox="0 0 132 98" fill="none" xmlns="http://www.w3.org/2000/svg">
<g filter="url(#filter0_dd_2095_898)">
<path d="M117.09 10.65H19.9098C19.3104 10.65 18.7356 10.8881 18.3117 11.312C17.8879 11.7358 17.6498 12.3106 17.6498 12.91V81.84C17.6498 82.4394 17.8879 83.0143 18.3117 83.4381C18.7356 83.8619 19.3104 84.1 19.9098 84.1H117.09C117.689 84.1 118.264 83.8619 118.688 83.4381C119.112 83.0143 119.35 82.4394 119.35 81.84V12.91C119.35 12.3106 119.112 11.7358 118.688 11.312C118.264 10.8881 117.689 10.65 117.09 10.65Z" fill="white"/>
</g>
<path d="M117.09 10.65H19.9098C19.3104 10.65 18.7356 10.8881 18.3117 11.312C17.8879 11.7358 17.6498 12.3106 17.6498 12.91V59.24H119.35V12.91C119.35 12.3106 119.112 11.7358 118.688 11.312C118.264 10.8881 117.689 10.65 117.09 10.65Z" fill="#F0F2FF"/>
<path d="M44.5268 10.65H19.9098C19.3104 10.65 18.7356 10.8881 18.3117 11.312C17.8879 11.7358 17.6498 12.3106 17.6498 12.91V59.24H63.9798L54.5787 48.2191C52.395 45.6586 52.9199 41.768 55.7042 39.8775L60.0067 36.957C64.886 33.645 65.3386 26.6231 60.9248 22.7116L49.3971 12.4976C48.0539 11.3074 46.3215 10.6502 44.5268 10.65Z" fill="#4188FF"/>
<path d="M24.4299 18.4323C25.426 18.4323 25.4814 17.43 26.6436 17.43C27.8335 17.43 27.8335 18.56 28.9963 18.56C30.1585 18.56 30.2138 17.5577 31.3207 17.5577C32.4275 17.5577 32.3998 18.56 33.5343 18.56C34.6689 18.56 34.7519 17.5577 35.8316 17.5577C36.9108 17.5577 37.2984 18.56 37.9899 18.56" stroke="#005BD3" stroke-width="2" stroke-linecap="round" stroke-linejoin="round"/>
<path d="M50.4199 63.195H30.08C29.7803 63.195 29.4928 63.314 29.2809 63.5259C29.069 63.7379 28.95 64.0253 28.95 64.325V84.1H51.5499V64.325C51.5499 64.0253 51.4309 63.7379 51.219 63.5259C51.0071 63.314 50.7196 63.195 50.4199 63.195ZM78.6699 63.195H58.3299C58.0303 63.195 57.7428 63.314 57.5309 63.5259C57.319 63.7379 57.1999 64.0253 57.1999 64.325V84.1H79.7999V64.325C79.7999 64.0253 79.6809 63.7379 79.469 63.5259C79.2571 63.314 78.9696 63.195 78.6699 63.195ZM106.92 63.195H86.5799C86.2803 63.195 85.9928 63.314 85.7809 63.5259C85.569 63.7379 85.4499 64.0253 85.4499 64.325V84.1H108.05V64.325C108.05 64.0253 107.931 63.7379 107.719 63.5259C107.507 63.314 107.22 63.195 106.92 63.195Z" fill="#F0F1F2"/>
<g filter="url(#filter1_dd_2095_898)">
<path d="M57.765 46.245H22.735C16.8062 46.245 12 51.0512 12 56.98C12 62.9087 16.8062 67.715 22.735 67.715H57.765C63.6938 67.715 68.5 62.9087 68.5 56.98C68.5 51.0512 63.6938 46.245 57.765 46.245Z" fill="white"/>
</g>
<path d="M23.4803 61.5995C26.0761 61.5995 28.1805 59.4951 28.1805 56.8993C28.1805 54.3034 26.0761 52.199 23.4803 52.199C20.8844 52.199 18.78 54.3034 18.78 56.8993C18.78 59.4951 20.8844 61.5995 23.4803 61.5995Z" fill="#00735C"/>
<path d="M34.3648 61.5995C36.9607 61.5995 39.065 59.4951 39.065 56.8993C39.065 54.3034 36.9607 52.199 34.3648 52.199C31.7689 52.199 29.6646 54.3034 29.6646 56.8993C29.6646 59.4951 31.7689 61.5995 34.3648 61.5995Z" fill="#BAC7FF"/>
<path d="M45.7439 61.5995C48.3398 61.5995 50.4442 59.4951 50.4442 56.8993C50.4442 54.3034 48.3398 52.199 45.7439 52.199C43.1481 52.199 41.0437 54.3034 41.0437 56.8993C41.0437 59.4951 43.1481 61.5995 45.7439 61.5995Z" fill="#0071E9"/>
<path d="M56.6289 61.5995C59.2248 61.5995 61.3292 59.4951 61.3292 56.8993C61.3292 54.3034 59.2248 52.199 56.6289 52.199C54.0331 52.199 51.9287 54.3034 51.9287 56.8993C51.9287 59.4951 54.0331 61.5995 56.6289 61.5995Z" fill="#3C8B96"/>
<g filter="url(#filter2_dd_2095_898)">
<path d="M113.107 58.6586L80.7509 37.7428C78.8519 36.5157 76.3083 37.2112 75.298 39.2333C74.8513 40.1272 74.7754 41.1612 75.0868 42.1107C75.3981 43.0602 76.0716 43.8484 76.9608 44.3042L111.246 61.8808C111.671 62.0959 112.163 62.1401 112.619 62.0042C113.076 61.8683 113.463 61.5627 113.701 61.1502C113.939 60.7377 114.011 60.2496 113.9 59.7862C113.79 59.3228 113.506 58.9193 113.107 58.6586Z" fill="#D9942D"/>
<path d="M76.4864 41.2814C77.3828 40.2119 77.8848 38.867 77.9085 37.4717C77.9684 34.0913 75.2762 31.2962 71.8907 31.2369C71.7879 31.2346 71.6851 31.2425 71.5822 31.2454C70.8783 31.1719 70.1873 31.155 69.5895 31.1442L69.2211 31.1103C66.4023 30.9617 64.5169 28.504 63.579 26.0632C63.5169 25.8988 63.2977 25.8807 63.2016 26.0287C62.0055 27.8757 61.6637 31.0787 62.1467 34.1562H62.1371C62.1371 34.1562 62.1501 34.2071 62.1541 34.2308C62.3773 35.6269 62.7733 36.9937 63.3361 38.1943C63.6592 38.9378 64.0531 39.6362 64.5621 40.187L64.5802 40.2063C64.7446 40.4097 64.9186 40.6046 65.1028 40.7809C65.3735 41.0425 65.6497 41.2764 65.9311 41.4871C68.2877 43.4437 70.5918 43.9002 72.6461 43.4228C74.1423 43.2088 75.5066 42.4494 76.4768 41.2905C76.4768 41.2905 76.4814 41.2905 76.4864 41.286V41.2814Z" fill="#231F20"/>
<path d="M65.1328 30.8973C65.3605 30.4623 65.8594 30.2329 66.5057 30.1323C65.1542 29.1645 64.1779 27.6107 63.579 26.0632C63.5169 25.8988 63.2977 25.8807 63.2016 26.0287C62.0055 27.8757 61.6637 31.0787 62.1467 34.1562H62.1371C62.1371 34.1562 62.1501 34.2071 62.1541 34.2308C62.3773 35.6269 62.7733 36.9937 63.3361 38.1943C63.6592 38.9378 64.0531 39.6362 64.5621 40.187L64.5802 40.2063C64.7446 40.4097 64.9186 40.6046 65.1028 40.7809C65.3735 41.0425 65.6497 41.2764 65.9311 41.4871C67.9516 43.1669 69.9358 43.7392 71.7608 43.5663C71.7738 43.3703 71.7862 43.1787 71.7851 42.9872C71.7772 36.8541 63.9536 33.137 65.1282 30.9018L65.1328 30.8973Z" fill="#005BD3"/>
<path d="M83.5044 39.4271L80.3257 37.3773C79.8961 37.1018 79.4161 36.9142 78.9135 36.8253C78.4109 36.7364 77.8957 36.748 77.3976 36.8594C76.8995 36.9708 76.4285 37.1799 76.0116 37.4744C75.5948 37.769 75.2405 38.1433 74.9693 38.5756C74.698 39.0079 74.515 39.4897 74.4311 39.9931C74.3471 40.4965 74.3637 41.0116 74.48 41.5086C74.5963 42.0056 74.8099 42.4745 75.1086 42.8885C75.4072 43.3024 75.7849 43.653 76.2198 43.92L79.4477 45.8907C80.1342 46.3102 80.9358 46.5019 81.7378 46.4384C82.5399 46.375 83.3013 46.0597 83.9134 45.5376C85.8587 43.8777 85.6536 40.8125 83.5044 39.4271Z" fill="#FFB800"/>
<path d="M82.7365 38.7486C82.7365 38.7486 83.2037 38.7486 86.9401 41.3171C90.6764 43.8861 90.6759 44.1195 90.6759 44.1195L87.4068 49.7243C87.4068 49.7243 87.4068 49.957 84.371 48.5564C84.0625 48.414 79.9476 46.1761 79.6538 46.0054L78.573 45.3783L82.7365 38.7486Z" fill="#FFB800"/>
<path d="M83.4249 39.1327L80.2456 37.0829C79.816 36.8074 79.336 36.6198 78.8334 36.5309C78.3308 36.442 77.8156 36.4536 77.3175 36.565C76.8194 36.6764 76.3484 36.8854 75.9316 37.18C75.5148 37.4746 75.1605 37.8488 74.8892 38.2811C74.6179 38.7135 74.435 39.1953 74.351 39.6987C74.267 40.2021 74.2836 40.7172 74.3999 41.2142C74.5162 41.7111 74.7298 42.1801 75.0285 42.594C75.3271 43.0079 75.7048 43.3586 76.1398 43.6256L79.3682 45.5969C80.0547 46.0162 80.8562 46.2078 81.6581 46.1442C82.4601 46.0807 83.2214 45.7654 83.8334 45.2432C85.7787 43.5838 85.5736 40.5181 83.4249 39.1327Z" fill="#FFB800"/>
</g>
<defs>
<filter id="filter0_dd_2095_898" x="5.71978" y="0.276024" width="125.56" height="97.31" filterUnits="userSpaceOnUse" color-interpolation-filters="sRGB">
<feFlood flood-opacity="0" result="BackgroundImageFix"/>
<feColorMatrix in="SourceAlpha" type="matrix" values="0 0 0 0 0 0 0 0 0 0 0 0 0 0 0 0 0 0 127 0" result="hardAlpha"/>
<feOffset dy="1.556"/>
<feGaussianBlur stdDeviation="5.965"/>
<feColorMatrix type="matrix" values="0 0 0 0 0 0 0 0 0 0 0 0 0 0 0 0 0 0 0.09 0"/>
<feBlend mode="normal" in2="BackgroundImageFix" result="effect1_dropShadow_2095_898"/>
<feColorMatrix in="SourceAlpha" type="matrix" values="0 0 0 0 0 0 0 0 0 0 0 0 0 0 0 0 0 0 127 0" result="hardAlpha"/>
<feOffset dy="1.037"/>
<feGaussianBlur stdDeviation="0.778"/>
<feColorMatrix type="matrix" values="0 0 0 0 0 0 0 0 0 0 0 0 0 0 0 0 0 0 0.12 0"/>
<feBlend mode="normal" in2="effect1_dropShadow_2095_898" result="effect2_dropShadow_2095_898"/>
<feBlend mode="normal" in="SourceGraphic" in2="effect2_dropShadow_2095_898" result="shape"/>
</filter>
<filter id="filter1_dd_2095_898" x="0.0699997" y="35.871" width="80.36" height="45.33" filterUnits="userSpaceOnUse" color-interpolation-filters="sRGB">
<feFlood flood-opacity="0" result="BackgroundImageFix"/>
<feColorMatrix in="SourceAlpha" type="matrix" values="0 0 0 0 0 0 0 0 0 0 0 0 0 0 0 0 0 0 127 0" result="hardAlpha"/>
<feOffset dy="1.556"/>
<feGaussianBlur stdDeviation="5.965"/>
<feColorMatrix type="matrix" values="0 0 0 0 0 0 0 0 0 0 0 0 0 0 0 0 0 0 0.09 0"/>
<feBlend mode="normal" in2="BackgroundImageFix" result="effect1_dropShadow_2095_898"/>
<feColorMatrix in="SourceAlpha" type="matrix" values="0 0 0 0 0 0 0 0 0 0 0 0 0 0 0 0 0 0 127 0" result="hardAlpha"/>
<feOffset dy="1.037"/>
<feGaussianBlur stdDeviation="0.778"/>
<feColorMatrix type="matrix" values="0 0 0 0 0 0 0 0 0 0 0 0 0 0 0 0 0 0 0.12 0"/>
<feBlend mode="normal" in2="effect1_dropShadow_2095_898" result="effect2_dropShadow_2095_898"/>
<feBlend mode="normal" in="SourceGraphic" in2="effect2_dropShadow_2095_898" result="shape"/>
</filter>
<filter id="filter2_dd_2095_898" x="50.0053" y="15.5539" width="75.8756" height="60.0137" filterUnits="userSpaceOnUse" color-interpolation-filters="sRGB">
<feFlood flood-opacity="0" result="BackgroundImageFix"/>
<feColorMatrix in="SourceAlpha" type="matrix" values="0 0 0 0 0 0 0 0 0 0 0 0 0 0 0 0 0 0 127 0" result="hardAlpha"/>
<feOffset dy="1.556"/>
<feGaussianBlur stdDeviation="5.965"/>
<feColorMatrix type="matrix" values="0 0 0 0 0 0 0 0 0 0 0 0 0 0 0 0 0 0 0.09 0"/>
<feBlend mode="normal" in2="BackgroundImageFix" result="effect1_dropShadow_2095_898"/>
<feColorMatrix in="SourceAlpha" type="matrix" values="0 0 0 0 0 0 0 0 0 0 0 0 0 0 0 0 0 0 127 0" result="hardAlpha"/>
<feOffset dy="1.037"/>
<feGaussianBlur stdDeviation="0.778"/>
<feColorMatrix type="matrix" values="0 0 0 0 0 0 0 0 0 0 0 0 0 0 0 0 0 0 0.12 0"/>
<feBlend mode="normal" in2="effect1_dropShadow_2095_898" result="effect2_dropShadow_2095_898"/>
<feBlend mode="normal" in="SourceGraphic" in2="effect2_dropShadow_2095_898" result="shape"/>
</filter>
</defs>
</svg>
