<svg xmlns="http://www.w3.org/2000/svg" width="120" height="120" fill="none"><g clip-path="url(#a)"><path fill="#AED3E0" d="M84.788 44.2c-4.73 0-8.564 5.028-8.564 11.23 0 6.204.426 14.04 5.156 14.04s10.867-6.454 11.372-14.04c.45-6.761-3.234-11.23-7.964-11.23m3.424 11.019c-.227 3.899-2.985 7.216-5.11 7.216s-2.317-4.028-2.317-7.216 1.723-5.773 3.848-5.773 3.78 2.297 3.579 5.773"/><path fill="#80AFC0" d="M83.334 48.46c-2.55.612-4.47-.979-3.178-2.478-2.366 2-3.932 5.484-3.932 9.449 0 6.203.426 14.039 5.156 14.039 2.575 0 5.567-1.913 7.84-4.879-2.395.695-2.526-.9-1.706-2.464 1.887-3.595 2.075-6.756 1.888-8.377-.578-5.005-3.861-5.822-6.068-5.29m4.878 6.76c-.227 3.898-2.985 7.215-5.11 7.215s-2.317-4.027-2.317-7.216c0-1.992.673-3.75 1.697-4.787.614-.623 1.354-.986 2.151-.986 2.125 0 3.78 2.297 3.579 5.773"/><path fill="#AED3E0" d="M85.613 61.808c0 12.422-11.642 22.174-26.004 22.174S33.604 74.23 33.604 61.808s11.643-20.745 26.005-20.745 26.004 8.324 26.004 20.745"/><path fill="#80AFC0" d="M43.783 65.348C40.08 78.874 59.196 84.991 64.85 83.541c-1.693.291-3.446.444-5.241.444-14.362 0-26.005-9.753-26.005-22.174 0-6.812 3.5-12.39 9.03-16.041 4.556-3.007-8.194 6.788-2.074 8.938 3.825 1.344 4.383 6.406 3.223 10.64"/><path fill="#AED3E0" d="M32.997 46.875c1.584.56 2.991 4.74 4.405 6.957.866 1.358 2.402 2.366 3.287 2.882 2.913 1.7 3.22 5.93 1.32 8.435-1.941 2.562-4.917 2.624-6.846 2.305-1.646-.272-5.255-2.204-5.545-6.923-.249-4.067.138-5.238-.344-7.788-.43-2.277-2.233-5.14-2.233-5.14s5.579-.861 5.956-.728"/><path fill="#80AFC0" d="M77.73 45.431c0 3.175-8.114 5.749-18.122 5.749s-18.12-2.574-18.12-5.749 2.2-3.64 17.511-1.889c17.273-.448 18.73-1.285 18.73 1.89"/><path fill="#AED3E0" d="M77.73 44.85c0 3.174-8.114 5.747-18.122 5.747s-18.12-2.573-18.12-5.748c0-3.174 8.112-7.081 18.12-7.081s18.121 3.907 18.121 7.081"/><path fill="#80AFC0" d="M30.26 48.47c1.799 0 3.258-.463 3.258-1.034 0-.57-1.459-1.034-3.259-1.034S27 46.865 27 47.436s1.46 1.034 3.26 1.034"/><path fill="#5A899A" d="M33.518 47.436c0 .571-1.459 1.034-3.259 1.034 1.23-.319 1.817-.463 1.817-1.034 0-.402-1.193-.922-3.294-.922a9.4 9.4 0 0 1 1.477-.112c1.8 0 3.26.463 3.26 1.034"/><path fill="#AED3E0" d="M64.209 33.075c0-2.24-2.06-4.057-4.6-4.057-2.541 0-4.601 1.816-4.601 4.057 0 .615.248 1.421.601 2.125.512 1.02.868 1.878.654 3.293l-.04.49a1.02 1.02 0 0 0 .636 1.03c.524.212 1.393.428 2.75.428s2.224-.217 2.749-.428a1.02 1.02 0 0 0 .636-1.03l-.04-.49a6.2 6.2 0 0 1 .654-3.293c.353-.704.6-1.51.6-2.125"/><path fill="#80AFC0" d="M57.357 36.4c1.31-2.757-4.44-4.06 1.059-7.246-1.963.464-3.408 2.043-3.408 3.92 0 .657.283 1.533.676 2.269a5.2 5.2 0 0 1 .601 2.884l-.06.72c-.038.466.231.907.667 1.078.528.208 1.388.415 2.716.415 1.33 0 2.19-.208 2.718-.415.434-.171.703-.61.667-1.075-.033-.413-.049-.894-.058-1.1-.203 2.787-7.71 3.037-5.578-1.45"/></g><rect width="22.5" height="22.5" x="89" y="17" fill="url(#b)" rx="11.25"/><path fill="#fff" d="M96.8 25.3a1.61 1.61 0 0 1 2.394 0l.676.721a.52.52 0 0 0 .76 0l.676-.72a1.61 1.61 0 0 1 2.393 0c.689.733.689 1.939 0 2.672l-3.449 3.679-3.45-3.679c-.687-.733-.687-1.939 0-2.672"/><path fill="#fff" fill-rule="evenodd" d="M99.954 24.61a2.656 2.656 0 0 0-3.914 0c-1.053 1.124-1.053 2.93 0 4.054l3.576 3.813a.87.87 0 0 0 1.268 0l3.576-3.813c1.053-1.124 1.053-2.93 0-4.054a2.656 2.656 0 0 0-3.914 0l-.296.316zm-.76.69a1.61 1.61 0 0 0-2.394 0c-.687.734-.687 1.94 0 2.673l3.45 3.679 3.449-3.679c.689-.733.689-1.939 0-2.672a1.61 1.61 0 0 0-2.393 0l-.676.72a.52.52 0 0 1-.76 0z" clip-rule="evenodd"/><path fill="#4A4A4A" d="M24.582 90.686a4.6 4.6 0 1 0 2.749 5.896.4.4 0 0 1 .752.274A5.4 5.4 0 1 1 27 91.37V90.2a.4.4 0 1 1 .8 0v2.4a.4.4 0 0 1-.4.4H25a.4.4 0 1 1 0-.8h1.652a4.6 4.6 0 0 0-2.07-1.514"/><path stroke="#4A4A4A" stroke-linecap="round" stroke-linejoin="round" stroke-width=".8" d="M24.733 96.734 23 95v-3.2"/><path fill="#303030" d="M35.886 99v-6.546h1.104v1.015h.068q.18-.507.64-.81.464-.307 1.044-.307.114 0 .277.009.165.004.26.017v1.12a3 3 0 0 0-.256-.042 2.4 2.4 0 0 0-.384-.03q-.465 0-.83.196a1.45 1.45 0 0 0-.572.533q-.209.341-.209.775V99zm7.111.136q-.958 0-1.649-.417a2.8 2.8 0 0 1-1.065-1.176q-.37-.76-.37-1.769 0-1.005.37-1.773.375-.77 1.044-1.201.673-.43 1.573-.43.532 0 1.04.178.51.175.92.563.413.383.652 1.01.243.626.243 1.53v.439h-5.127v-.912h3.989a2 2 0 0 0-.213-.938 1.6 1.6 0 0 0-.597-.652 1.68 1.68 0 0 0-.903-.239q-.57 0-.989.277a1.9 1.9 0 0 0-.64.725q-.225.448-.225.963v.66q0 .7.243 1.19.247.485.686.74.44.252 1.023.252.38 0 .69-.106a1.44 1.44 0 0 0 .882-.874l1.091.247q-.15.51-.52.9-.367.382-.916.6a3.4 3.4 0 0 1-1.231.213m4.233 2.319v-9h1.108v1.048h.115q.111-.183.316-.452.204-.269.575-.473.371-.21.997-.209a2.56 2.56 0 0 1 1.432.41q.626.404.98 1.163.358.755.358 1.802 0 1.05-.354 1.807-.354.759-.976 1.172a2.54 2.54 0 0 1-1.427.41q-.614-.001-.993-.205a1.9 1.9 0 0 1-.588-.474 4 4 0 0 1-.32-.468h-.08v3.469zm1.12-5.728q0 .716.21 1.262.208.54.605.848.4.302.98.302.596 0 1.001-.32a1.94 1.94 0 0 0 .61-.865q.209-.549.209-1.227a3.3 3.3 0 0 0-.205-1.201 1.86 1.86 0 0 0-.605-.848q-.405-.316-1.01-.316-.588 0-.989.299a1.8 1.8 0 0 0-.6.826q-.205.533-.205 1.24m9.026 3.41q-.958 0-1.649-.418a2.8 2.8 0 0 1-1.065-1.176q-.37-.76-.37-1.769 0-1.005.37-1.773.375-.77 1.044-1.201.673-.43 1.572-.43.533 0 1.04.178.512.175.92.563.414.383.653 1.01.242.626.242 1.53v.439h-5.126v-.912h3.989a2 2 0 0 0-.213-.938 1.6 1.6 0 0 0-.597-.652 1.68 1.68 0 0 0-.903-.239q-.571 0-.989.277a1.9 1.9 0 0 0-.64.725q-.225.448-.225.963v.66q0 .7.243 1.19.247.485.686.74.44.252 1.023.252.379 0 .69-.106a1.44 1.44 0 0 0 .882-.874l1.091.247q-.15.51-.52.9-.367.382-.916.6a3.4 3.4 0 0 1-1.232.213m6.15.012a2.7 2.7 0 0 1-1.129-.234 1.9 1.9 0 0 1-.8-.678q-.295-.448-.295-1.09 0-.56.218-.913.22-.358.588-.562.366-.204.814-.307.447-.102.907-.158.593-.075.959-.119.371-.042.541-.14.17-.099.17-.337v-.034q0-.593-.328-.92-.327-.33-.984-.329-.68 0-1.07.298-.387.3-.545.652l-1.074-.306q.235-.597.652-.946.422-.354.942-.503a3.8 3.8 0 0 1 1.07-.154q.353 0 .78.085.425.082.81.32.386.234.638.695.252.456.252 1.202V99h-1.125v-.89h-.051a1.8 1.8 0 0 1-.354.472q-.243.24-.635.405-.392.162-.95.162m.214-.963q.567 0 .958-.222.392-.22.597-.575a1.46 1.46 0 0 0 .209-.754v-.882q-.068.072-.273.132-.204.06-.469.102a19 19 0 0 1-.92.128 3.7 3.7 0 0 0-.703.162 1.2 1.2 0 0 0-.516.328q-.192.213-.191.575 0 .499.37.755.37.25.938.251m7.619-5.732v.938h-3.481v-.937zm-2.51-1.568h1.142v6.218q0 .396.115.596.12.196.307.264.188.069.405.069a1.8 1.8 0 0 0 .443-.052l.217.976a3 3 0 0 1-.302.081q-.192.047-.486.047a2.15 2.15 0 0 1-.886-.179 1.64 1.64 0 0 1-.69-.57q-.265-.385-.265-.968zm12.736 1.569L79.186 99h-1.193l-2.4-6.546h1.228l1.734 5.127h.069l1.73-5.127zM82.843 99v-6.546h1.142V99zm.58-7.594a.76.76 0 0 1-.537-.213.69.69 0 0 1-.222-.511.68.68 0 0 1 .222-.507.76.76 0 0 1 .537-.213q.31 0 .533.213.225.212.225.507 0 .299-.225.511a.74.74 0 0 1-.533.213m7.111 2.583-1.031.23a1.4 1.4 0 0 0-.239-.43 1.2 1.2 0 0 0-.43-.346q-.273-.136-.69-.136-.572 0-.955.26-.38.26-.38.66a.68.68 0 0 0 .26.558q.261.21.819.346l1.005.238q.891.21 1.326.648.438.435.439 1.125 0 .576-.333 1.027-.328.447-.916.707t-1.368.26q-1.052 0-1.726-.451-.673-.456-.843-1.309l1.095-.213q.128.507.494.763.371.252.967.252.666 0 1.057-.282.396-.281.4-.681a.72.72 0 0 0-.238-.542q-.23-.22-.712-.332l-1.099-.251q-.907-.21-1.338-.661-.426-.456-.426-1.142 0-.567.315-.997a2.1 2.1 0 0 1 .878-.678 3.2 3.2 0 0 1 1.274-.243q1.014 0 1.598.444.584.442.797 1.176M92.113 99v-6.546h1.142V99zm.58-7.594a.76.76 0 0 1-.537-.213.69.69 0 0 1-.222-.511.68.68 0 0 1 .222-.507.76.76 0 0 1 .536-.213q.312 0 .533.213.226.212.226.507 0 .299-.226.511a.74.74 0 0 1-.532.213m5.291 1.048v.938h-3.481v-.937zm-2.51-1.568h1.142v6.218q0 .396.115.596.12.196.307.264.188.069.405.069a1.8 1.8 0 0 0 .443-.052l.217.976a3 3 0 0 1-.302.081q-.192.047-.486.047a2.15 2.15 0 0 1-.886-.179 1.64 1.64 0 0 1-.69-.57q-.265-.385-.265-.968zm8.63 3.103-1.031.23a1.5 1.5 0 0 0-.238-.43 1.2 1.2 0 0 0-.431-.346q-.273-.136-.69-.136-.571 0-.955.26-.38.26-.379.66a.68.68 0 0 0 .26.558q.26.21.818.346l1.006.238q.89.21 1.325.648.44.435.439 1.125 0 .576-.332 1.027-.329.447-.917.707t-1.367.26q-1.053 0-1.726-.451-.674-.456-.844-1.309l1.095-.213q.128.507.494.763.371.252.968.252.664 0 1.057-.282.396-.281.4-.681a.72.72 0 0 0-.239-.542q-.23-.22-.711-.332l-1.1-.251q-.907-.21-1.338-.661-.426-.456-.426-1.142 0-.567.316-.997a2.1 2.1 0 0 1 .877-.678 3.2 3.2 0 0 1 1.275-.243q1.014 0 1.598.444.583.442.796 1.176"/><defs><linearGradient id="b" x1="92.345" x2="107.547" y1="20.041" y2="39.5" gradientUnits="userSpaceOnUse"><stop stop-color="#328AFF"/><stop offset="1" stop-color="#F000FF"/></linearGradient><clipPath id="a"><path fill="#fff" d="M27 29h65.788v55H27z"/></clipPath></defs></svg>