<svg xmlns="http://www.w3.org/2000/svg" width="232" height="210" fill="none" viewBox="0 0 232 210">
  <mask id="a" width="232" height="210" x="0" y="0" maskUnits="userSpaceOnUse" style="mask-type:luminance">
    <path fill="#fff" d="M.5 0h231v210H.5V0Z"/>
  </mask>
  <g mask="url(#a)">
    <mask id="b" width="231" height="210" x="0" y="0" maskUnits="userSpaceOnUse" style="mask-type:luminance">
      <path fill="#fff" d="M222.91 0H8.5a8 8 0 0 0-8 8v194a8 8 0 0 0 8 8h214.41a8 8 0 0 0 8-8V8a8 8 0 0 0-8-8Z"/>
    </mask>
    <g mask="url(#b)">
      <path fill="#fff" d="M.5 5.753A5.747 5.747 0 0 1 4.056.438C4.756.148 5.504 0 6.261 0H228.91a2 2 0 0 1 2 2v206a2 2 0 0 1-2 2H6.26a5.77 5.77 0 0 1-5.322-3.551 5.744 5.744 0 0 1-.438-2.202V5.753Z"/>
      <path fill="#fff" d="M259.922 0H-17.924a6.462 6.462 0 0 0-6.461 6.462v197.076A6.455 6.455 0 0 0-17.924 210h277.846a6.472 6.472 0 0 0 4.57-1.892 6.472 6.472 0 0 0 1.892-4.57V6.462A6.456 6.456 0 0 0 259.922 0Z"/>
      <path fill="#7FBEC6" d="M105.231 66.043H19.543a5.355 5.355 0 0 0-5.356 5.355v99.078a5.358 5.358 0 0 0 5.356 5.355h85.688a5.36 5.36 0 0 0 5.356-5.355V71.398a5.36 5.36 0 0 0-5.356-5.355Z"/>
      <mask id="c" width="99" height="110" x="12" y="66" maskUnits="userSpaceOnUse" style="mask-type:luminance">
        <path fill="#fff" d="M12.849 69.679a3.634 3.634 0 0 1 3.633-3.634h90.471a3.635 3.635 0 0 1 3.634 3.634V172.2a3.633 3.633 0 0 1-3.634 3.633h-90.47a3.634 3.634 0 0 1-3.634-3.633V69.679Z"/>
      </mask>
      <g mask="url(#c)">
        <path fill="#E9AF58" fill-rule="evenodd" d="M114.472 116.219v34.094l-9.438 3.81v.009l-1.712.687-9.268-22.036V89.236c5.77 1.94 11.454 5.74 14.507 12.966l5.911 14.017Z" clip-rule="evenodd"/>
        <path fill="#F3C348" fill-rule="evenodd" d="M94.052 89.309V204.93h-65.49v-39.748L14.857 121.87c2.01-16.422 12.863-24.356 25.408-28.478a73.198 73.198 0 0 1 4.77-1.39h.02c10.879-2.76 22.314-3.2 29.977-4.186l.832-.115s.22-.038.632-.077a40.99 40.99 0 0 1 4.732-.25c3.465 0 8.169.373 12.824 1.935Z" clip-rule="evenodd"/>
        <path fill="#E8E9EB" fill-rule="evenodd" d="M14.857 165.336h13.61l-13.61-43.311v43.311Z" clip-rule="evenodd"/>
        <path fill="#BF8563" fill-rule="evenodd" d="M114.469 150.487v29.906l-5.407 19.497-3.498 5.042h-9.856l-.42-2.939 5.618-9.249 4.101-26.042c.646-4.1.638-8.276-.022-12.374v-.009l9.484-3.832Zm-86 14.848v26.395L18.44 204.932l-1.482-17.652c-.567-6.73-.179-13.533 1.445-20.087.154-.622.318-1.242.493-1.858h9.573Zm47.024-100.23v.147c0 1.614-.592 3.166-1.65 4.31l-3.076 3.344-.224.241v-8.04l4.95-.001Zm0 22.19-.576.516-29.296 4.393-1.683.735V73.15l6.197 6.84a9.393 9.393 0 0 0 6.943 3.085h2.367a9.344 9.344 0 0 0 7.572-3.855c1.924 8.944 8.476 8.075 8.476 8.075Z" clip-rule="evenodd"/>
        <path fill="#DEAC90" fill-rule="evenodd" d="M76.108 87.38c-4.582 6.742-12.152 11.136-20.71 11.136-5.69 0-10.946-1.946-15.176-5.218a70.688 70.688 0 0 1 4.725-1.426h.018l12.372-1.86 17.32-2.435.826-.118s.216-.039.625-.079Zm-3.71-22.273a21.578 21.578 0 0 1-1.591 7.6 17.806 17.806 0 0 1-.878 1.921l-1.757 3.36a7.884 7.884 0 0 1-.82 1.267v.01c-1.765 2.356-4.605 3.785-7.68 3.785H57.27a9.683 9.683 0 0 1-7.047-3.027l-6.285-6.72v-8.196h28.46Z" clip-rule="evenodd"/>
        <path fill="#BF8563" fill-rule="evenodd" d="M39.605 65.107h4.33v4.33l-3.543-3.392a5.3 5.3 0 0 1-.787-.938Zm13.613 7.96s2.88-2.754 5.625-1.399c2.925-.82 3.705.822 4.275 1.807-2.875 3.157-9.265.614-9.9-.408Z" clip-rule="evenodd"/>
        <path fill="#5BA7B1" fill-rule="evenodd" d="m43.938 112.864 32.173-4.448v37.624l-32.174 4.448.001-37.624Z" clip-rule="evenodd"/>
        <path fill="#005C44" fill-rule="evenodd" d="M76.11 108.416v19.458l-10.29 12.095-8.847-10.396 3.36-4.497H53.31a34.294 34.294 0 0 1-5.66-12.698l28.46-3.962Z" clip-rule="evenodd"/>
        <path fill="#00735C" fill-rule="evenodd" d="m67.448 147.003-11.975 1.628c-.474-.39-.931-.798-1.372-1.225l-3.497-3.429 3.095-3.036h-6.203l-1.215-1.179 2.157-2.106h-4.304l-.195-.192v-7.394c2.46.049 5.519.498 9.025 1.792a23.841 23.841 0 0 1 14.484 15.141Z" clip-rule="evenodd"/>
      </g>
      <path fill="#B6BABF" d="M185.266 66.045h-56.233a4.018 4.018 0 1 0 0 8.033h56.233a4.016 4.016 0 0 0 0-8.033Z"/>
      <path fill="#E8E9EB" d="M222.755 91.481h-95.061a2.679 2.679 0 0 0 0 5.357h95.061a2.686 2.686 0 0 0 1.942-.758 2.68 2.68 0 0 0-1.942-4.599Zm-17.406 14.729h-77.655a2.686 2.686 0 0 0-2.371 1.68 2.677 2.677 0 0 0 .551 2.852c.478.499 1.13.794 1.82.823h77.655a2.677 2.677 0 1 0 0-5.355Zm-29.455 53.555h-48.2a2.674 2.674 0 0 0-1.893.784 2.684 2.684 0 0 0-.785 1.893v10.711a2.678 2.678 0 0 0 2.678 2.678h48.2a2.661 2.661 0 0 0 2.677-2.678v-10.711a2.677 2.677 0 0 0-2.677-2.677Z"/>
      <path fill="#399C97" d="M236.143 0H5.856A5.356 5.356 0 0 0 .5 5.356v26.777h240.999V5.356A5.354 5.354 0 0 0 236.143 0Z"/>
      <path fill="#399C97" d="M16.566 17.104c2.36 0 2.492-2.375 5.246-2.375 2.82 0 2.82 2.677 5.575 2.677 2.754 0 2.886-2.375 5.508-2.375 2.623 0 2.558 2.373 5.246 2.373 2.689 0 2.885-2.374 5.444-2.374 2.557 0 3.476 2.376 5.115 2.376"/>
      <path stroke="#fff" stroke-linecap="round" stroke-linejoin="round" stroke-width="2.678" d="M16.566 17.104c2.36 0 2.492-2.375 5.246-2.375 2.82 0 2.82 2.677 5.575 2.677 2.754 0 2.886-2.375 5.508-2.375 2.623 0 2.558 2.373 5.246 2.373 2.689 0 2.885-2.374 5.444-2.374 2.557 0 3.476 2.376 5.115 2.376"/>
      <path fill="#CD5747" fill-rule="evenodd" d="M132.673 134.411c-1.293-1.401-3.354-1.401-4.647 0-1.336 1.448-1.336 3.826 0 5.273l6.697 7.258 6.697-7.258c1.336-1.447 1.336-3.825 0-5.273-1.293-1.401-3.354-1.401-4.647 0l-1.312 1.422a1.016 1.016 0 0 1-.738.32 1.008 1.008 0 0 1-.738-.32l-1.312-1.422Zm-6.123-1.362c2.089-2.263 5.511-2.263 7.599 0l.574.622.574-.622c2.088-2.263 5.51-2.263 7.599 0 2.045 2.217 2.045 5.78 0 7.997l-6.943 7.524a1.706 1.706 0 0 1-.559.396 1.669 1.669 0 0 1-1.342 0 1.67 1.67 0 0 1-.559-.396l-6.943-7.524c-2.045-2.217-2.045-5.78 0-7.997Z" clip-rule="evenodd"/>
      <path fill="#CD5747" d="M128.026 134.41c1.293-1.401 3.354-1.401 4.647 0l1.312 1.422a1.01 1.01 0 0 0 1.141.239c.127-.056.241-.137.335-.239l1.312-1.422c1.293-1.401 3.354-1.401 4.647 0 1.336 1.448 1.336 3.826 0 5.273l-6.697 7.258-6.697-7.258c-1.336-1.447-1.336-3.825 0-5.273Z"/>
    </g>
  </g>
</svg>
